<svg width="18" height="18" viewBox="0 0 18 18" fill="none" xmlns="http://www.w3.org/2000/svg">
<path d="M9 9.75C8.2625 9.75 7.64062 9.49688 7.13438 8.99063C6.62813 8.48438 6.375 7.8625 6.375 7.125C6.375 6.3875 6.62813 5.76562 7.13438 5.25938C7.64062 4.75313 8.2625 4.5 9 4.5C9.7375 4.5 10.3594 4.75313 10.8656 5.25938C11.3719 5.76562 11.625 6.3875 11.625 7.125C11.625 7.8625 11.3719 8.48438 10.8656 8.99063C10.3594 9.49688 9.7375 9.75 9 9.75ZM9 8.25C9.325 8.25 9.59375 8.14375 9.80625 7.93125C10.0188 7.71875 10.125 7.45 10.125 7.125C10.125 6.8 10.0188 6.53125 9.80625 6.31875C9.59375 6.10625 9.325 6 9 6C8.675 6 8.40625 6.10625 8.19375 6.31875C7.98125 6.53125 7.875 6.8 7.875 7.125C7.875 7.45 7.98125 7.71875 8.19375 7.93125C8.40625 8.14375 8.675 8.25 9 8.25ZM9 16.5C7.2625 16.0625 5.82812 15.0656 4.69688 13.5094C3.56563 11.9531 3 10.225 3 8.325V3.75L9 1.5L15 3.75V8.325C15 10.225 14.4344 11.9531 13.3031 13.5094C12.1719 15.0656 10.7375 16.0625 9 16.5ZM9 3.09375L4.5 4.78125V8.325C4.5 9 4.59375 9.65625 4.78125 10.2938C4.96875 10.9313 5.225 11.5312 5.55 12.0938C6.075 11.8313 6.625 11.625 7.2 11.475C7.775 11.325 8.375 11.25 9 11.25C9.625 11.25 10.225 11.325 10.8 11.475C11.375 11.625 11.925 11.8313 12.45 12.0938C12.775 11.5312 13.0312 10.9313 13.2188 10.2938C13.4062 9.65625 13.5 9 13.5 8.325V4.78125L9 3.09375ZM9 12.75C8.55 12.75 8.1125 12.8 7.6875 12.9C7.2625 13 6.85625 13.1375 6.46875 13.3125C6.83125 13.6875 7.225 14.0125 7.65 14.2875C8.075 14.5625 8.525 14.775 9 14.925C9.475 14.775 9.925 14.5625 10.35 14.2875C10.775 14.0125 11.1688 13.6875 11.5312 13.3125C11.1438 13.1375 10.7375 13 10.3125 12.9C9.8875 12.8 9.45 12.75 9 12.75Z" fill="#081E2B"/>
</svg>
