<svg width="18" height="18" viewBox="0 0 18 18" fill="none" xmlns="http://www.w3.org/2000/svg">
<path d="M5.93101 0.0527344C5.07671 0.288282 4.50015 1.07578 4.50015 2.01094V2.25H4.22944C3.48062 2.25352 2.81265 2.64023 2.48218 3.26602C2.23609 3.73711 2.25015 3.22031 2.25015 10.793C2.25015 17.5535 2.25015 17.6309 2.32046 17.7469C2.35913 17.8102 2.43999 17.891 2.50327 17.9297C2.61929 18 2.69663 18 9.00015 18C15.3037 18 15.381 18 15.497 17.9297C15.5603 17.891 15.6412 17.8102 15.6798 17.7469C15.7501 17.6309 15.7501 17.5535 15.7501 10.793C15.7501 3.22031 15.7642 3.73711 15.5181 3.26602C15.1912 2.64375 14.5197 2.25352 13.7779 2.25H13.5107L13.4931 1.88789C13.4615 1.33242 13.2857 0.921095 12.9201 0.558985C12.6705 0.312891 12.4666 0.186329 12.1537 0.0878906L11.8794 0L8.9896 0.00351524C6.71148 0.00703239 6.0646 0.0175781 5.93101 0.0527344ZM11.8513 1.12852C12.1959 1.28672 12.3787 1.56445 12.4033 1.97578L12.4209 2.25H9.00015H5.57944L5.59702 1.97578C5.6146 1.67695 5.69194 1.48359 5.86069 1.33242C6.01538 1.18828 6.1314 1.125 6.29663 1.09336C6.38101 1.07578 7.6396 1.06524 9.08804 1.06524C11.44 1.07227 11.7388 1.0793 11.8513 1.12852ZM14.0662 3.38203C14.2595 3.43828 14.481 3.63867 14.5759 3.84609L14.6603 4.02539V10.4836V16.9453H13.2365H11.8126V16.1438C11.8126 15.2297 11.7775 14.9906 11.5841 14.6004C11.331 14.0871 10.765 13.6688 10.1919 13.5703C10.0408 13.5422 9.57671 13.5352 8.85601 13.5422C7.77319 13.5563 7.74859 13.5563 7.52007 13.6441C7.00327 13.8445 6.63062 14.1645 6.41616 14.6004C6.2228 14.9906 6.18765 15.2297 6.18765 16.1438V16.9453H4.76382H3.33999V10.5082C3.33999 5.55469 3.35054 4.03594 3.38218 3.92344C3.43491 3.74414 3.73023 3.4418 3.90249 3.38555C4.08179 3.3293 13.8798 3.32578 14.0662 3.38203ZM8.4728 15.7852V16.9453H7.87163H7.27046L7.28452 16.1086C7.29507 15.191 7.3021 15.1594 7.53765 14.9133C7.72749 14.7094 7.92085 14.632 8.25484 14.6285L8.4728 14.625V15.7852ZM10.213 14.7199C10.3783 14.8078 10.547 14.9801 10.6384 15.1523C10.6982 15.2613 10.7052 15.3773 10.7158 16.1086L10.7298 16.9453H10.1287H9.52749V15.7816V14.6145L9.80171 14.632C9.98101 14.6426 10.1181 14.6742 10.213 14.7199Z" fill="#081E2B"/>
<path d="M5.35488 4.57385C5.24941 4.62658 5.18613 4.68986 5.13691 4.79533C5.04551 4.98166 5.04551 5.10822 5.13691 5.29455C5.26699 5.56525 5.61504 5.66369 5.88574 5.509C6.24785 5.30158 6.23379 4.73908 5.86113 4.56682C5.67129 4.48244 5.5377 4.48244 5.35488 4.57385Z" fill="#081E2B"/>
<path d="M7.64375 4.54922C7.58398 4.57734 7.48906 4.65469 7.43633 4.725C7.35547 4.83047 7.33789 4.89023 7.33789 5.04844C7.33789 5.35078 7.52422 5.55469 7.83008 5.5793C8.16055 5.60742 8.40312 5.38242 8.40312 5.04492C8.40312 4.64062 8.01641 4.3875 7.64375 4.54922Z" fill="#081E2B"/>
<path d="M9.87891 4.56674C9.69258 4.66518 9.59766 4.8269 9.59766 5.04487C9.59766 5.59331 10.2586 5.78667 10.5926 5.33667C10.7016 5.18901 10.6875 4.89018 10.5645 4.72495C10.3957 4.50698 10.1145 4.44018 9.87891 4.56674Z" fill="#081E2B"/>
<path d="M12.1396 4.56682C11.7669 4.73908 11.7529 5.30158 12.115 5.509C12.2873 5.60744 12.449 5.61096 12.6423 5.51603C12.8076 5.43869 12.9376 5.22775 12.9376 5.04494C12.9376 4.86213 12.8076 4.65119 12.6423 4.57385C12.4595 4.48244 12.3294 4.48244 12.1396 4.56682Z" fill="#081E2B"/>
<path d="M5.46734 6.77463C5.34429 6.80627 5.16148 6.96799 5.11226 7.08752C5.04195 7.25276 5.0525 7.37932 5.1439 7.55862C5.33726 7.93831 5.89976 7.93831 6.08961 7.55862C6.21617 7.30901 6.14234 7.02073 5.90679 6.85198C5.81187 6.78167 5.58336 6.74299 5.46734 6.77463Z" fill="#081E2B"/>
<path d="M7.68227 6.80273C7.35883 6.91875 7.23227 7.31602 7.4186 7.61836C7.49243 7.73789 7.70688 7.83984 7.87915 7.83984C8.27641 7.83984 8.52251 7.42148 8.34672 7.04531C8.24126 6.82031 7.9354 6.70781 7.68227 6.80273Z" fill="#081E2B"/>
<path d="M9.98086 6.7816C9.73125 6.86245 9.59766 7.04878 9.59766 7.31949C9.59766 7.7273 10.0371 7.97339 10.4062 7.76597C10.575 7.67105 10.6594 7.52339 10.6629 7.31597C10.6664 7.02769 10.4871 6.81675 10.1953 6.77105C10.1285 6.7605 10.0301 6.76753 9.98086 6.7816Z" fill="#081E2B"/>
<path d="M12.2203 6.7852C12.0094 6.85199 11.8477 7.07699 11.8477 7.30199C11.8477 7.86449 12.6 8.05082 12.8602 7.55512C13.0887 7.1227 12.6844 6.63754 12.2203 6.7852Z" fill="#081E2B"/>
<path d="M5.30835 9.11253C4.97437 9.34104 4.98843 9.8262 5.33648 10.0301C5.56148 10.1637 5.89546 10.0899 6.05718 9.8719C6.15562 9.74182 6.17319 9.47112 6.09233 9.31643C5.95171 9.04221 5.56148 8.94378 5.30835 9.11253Z" fill="#081E2B"/>
<path d="M7.57944 9.10194C7.34037 9.26014 7.25951 9.59764 7.40365 9.84374C7.58998 10.1672 8.08569 10.1883 8.3142 9.88592C8.41615 9.74881 8.4267 9.43592 8.3353 9.28827C8.18061 9.04569 7.80795 8.95428 7.57944 9.10194Z" fill="#081E2B"/>
<path d="M9.85123 9.10543C9.66841 9.21793 9.59107 9.3691 9.60513 9.59762C9.61919 9.81207 9.69302 9.94215 9.85474 10.0371C9.99185 10.1179 10.2696 10.1144 10.4137 10.03C10.7512 9.83316 10.7512 9.29527 10.4137 9.09488C10.2696 9.01402 9.99888 9.01754 9.85123 9.10543Z" fill="#081E2B"/>
<path d="M12.0899 9.11606C11.9211 9.22856 11.8403 9.40083 11.8578 9.60825C11.8824 9.90005 12.0969 10.0969 12.3922 10.0969C12.9266 10.0969 13.134 9.41841 12.691 9.11255C12.5293 9.00356 12.2551 9.00356 12.0899 9.11606Z" fill="#081E2B"/>
<path d="M5.34465 11.352C5.27434 11.3907 5.18996 11.4786 5.14075 11.57C4.89114 12.0376 5.36926 12.5403 5.84387 12.3083C6.24114 12.1184 6.2552 11.5454 5.86848 11.3485C5.71379 11.2676 5.49934 11.2676 5.34465 11.352Z" fill="#081E2B"/>
<path d="M7.59456 11.3625C7.41174 11.489 7.34143 11.6085 7.33792 11.7984C7.3344 12.2167 7.68948 12.4699 8.06917 12.3222C8.49456 12.1605 8.5262 11.5488 8.1219 11.3484C7.94964 11.2605 7.73518 11.2675 7.59456 11.3625Z" fill="#081E2B"/>
<path d="M9.87891 11.3484C9.69961 11.4363 9.59766 11.6086 9.59766 11.8266C9.59766 12.0656 9.69258 12.2168 9.90352 12.3117C10.2902 12.484 10.6699 12.2309 10.6629 11.802C10.6559 11.4082 10.2375 11.1656 9.87891 11.3484Z" fill="#081E2B"/>
<path d="M12.1325 11.3485C11.8653 11.4821 11.7704 11.8231 11.9216 12.0903C12.1782 12.5473 12.8708 12.4031 12.927 11.8793C12.9727 11.4539 12.5157 11.1516 12.1325 11.3485Z" fill="#081E2B"/>
</svg>
