<svg width="48" height="48" viewBox="0 0 48 48" fill="none" xmlns="http://www.w3.org/2000/svg">
<rect width="48" height="48" rx="4" fill="#17191E" fill-opacity="0.04"/>
<g clip-path="url(#clip0_2868_7905)">
<path d="M19.7636 35.9593C18.2281 34.5553 17.7799 31.6051 18.4196 29.4678C19.5288 30.8153 21.0658 31.2422 22.6577 31.4831C25.1153 31.855 27.5289 31.7159 29.8119 30.5922C30.0731 30.4636 30.3145 30.2925 30.5999 30.1192C30.8141 30.741 30.8698 31.3686 30.795 32.0074C30.6131 33.5632 29.8391 34.765 28.6081 35.676C28.1158 36.0404 27.595 36.3661 27.0866 36.7097C25.5247 37.7657 25.1021 39.0039 25.689 40.805C25.703 40.8491 25.7154 40.893 25.747 41.0001C24.9495 40.6429 24.367 40.1231 23.9232 39.4396C23.4544 38.7183 23.2314 37.9204 23.2197 37.057C23.2138 36.6368 23.2138 36.2129 23.1573 35.7987C23.0194 34.7888 22.5455 34.3366 21.6526 34.3106C20.7364 34.2838 20.0115 34.8505 19.8193 35.7429C19.8047 35.8113 19.7834 35.879 19.7621 35.9586L19.7636 35.9593Z" fill="#17191E"/>
<path d="M11 29.1116C11 29.1116 15.5468 26.8959 20.1062 26.8959L23.5439 16.2532C23.6726 15.7385 24.0484 15.3888 24.4727 15.3888C24.8969 15.3888 25.2727 15.7385 25.4014 16.2532L28.8391 26.8959C34.2391 26.8959 37.9453 29.1116 37.9453 29.1116C37.9453 29.1116 30.2223 8.06523 30.2072 8.023C29.9855 7.40076 29.6113 7 29.1068 7H19.8393C19.3348 7 18.9757 7.40076 18.739 8.023C18.7223 8.06443 11 29.1116 11 29.1116Z" fill="#17191E"/>
</g>
<defs>
<clipPath id="clip0_2868_7905">
<rect width="27" height="34" fill="white" transform="translate(11 7)"/>
</clipPath>
</defs>
</svg>
