<svg width="600" height="600" viewBox="0 0 600 600" fill="none" xmlns="http://www.w3.org/2000/svg">
<rect width="600" height="600" rx="16" fill="#8C13FD" fill-opacity="0.05"/>
<path d="M122.87 165.583C122.013 140.921 141.201 118.18 167.136 118.18H432.897C458.833 118.18 478.021 140.921 477.163 165.583C476.339 189.273 477.409 219.961 485.121 244.983C492.858 270.082 505.905 285.947 527.273 287.986V311.101C505.905 313.139 492.858 329.004 485.121 354.104C477.409 379.126 476.339 409.813 477.163 433.504C478.021 458.165 458.833 480.907 432.897 480.907H167.136C141.201 480.907 122.013 458.165 122.871 433.504C123.694 409.813 122.625 379.126 114.911 354.104C107.175 329.004 94.0965 313.139 72.7275 311.101V287.986C94.0956 285.947 107.175 270.082 114.911 244.983C122.625 219.961 123.694 189.273 122.87 165.583Z" fill="url(#paint0_linear_1013_10566)"/>
<g filter="url(#filter0_d_1013_10566)">
<path d="M309.856 395.968C351.846 395.968 377.148 375.38 377.148 341.421C377.148 315.752 359.094 297.168 332.287 294.227V293.157C351.982 289.949 367.438 271.633 367.438 251.178C367.438 222.032 344.46 203.047 309.446 203.047H230.664V395.968H309.856ZM261.301 227.513H302.061C324.218 227.513 336.8 237.406 336.8 255.321C336.8 274.44 322.166 285.135 295.632 285.135H261.301V227.513ZM261.301 371.503V307.998H301.786C330.782 307.998 345.827 318.693 345.827 339.55C345.827 360.406 331.193 371.503 303.564 371.503H261.301Z" fill="url(#paint1_linear_1013_10566)"/>
<path d="M309.856 395.968C351.846 395.968 377.148 375.38 377.148 341.421C377.148 315.752 359.094 297.168 332.287 294.227V293.157C351.982 289.949 367.438 271.633 367.438 251.178C367.438 222.032 344.46 203.047 309.446 203.047H230.664V395.968H309.856ZM261.301 227.513H302.061C324.218 227.513 336.8 237.406 336.8 255.321C336.8 274.44 322.166 285.135 295.632 285.135H261.301V227.513ZM261.301 371.503V307.998H301.786C330.782 307.998 345.827 318.693 345.827 339.55C345.827 360.406 331.193 371.503 303.564 371.503H261.301Z" stroke="white"/>
</g>
<defs>
<filter id="filter0_d_1013_10566" x="214.164" y="190.547" width="179.484" height="225.922" filterUnits="userSpaceOnUse" color-interpolation-filters="sRGB">
<feFlood flood-opacity="0" result="BackgroundImageFix"/>
<feColorMatrix in="SourceAlpha" type="matrix" values="0 0 0 0 0 0 0 0 0 0 0 0 0 0 0 0 0 0 127 0" result="hardAlpha"/>
<feOffset dy="4"/>
<feGaussianBlur stdDeviation="8"/>
<feColorMatrix type="matrix" values="0 0 0 0 0 0 0 0 0 0 0 0 0 0 0 0 0 0 0.15 0"/>
<feBlend mode="normal" in2="BackgroundImageFix" result="effect1_dropShadow_1013_10566"/>
<feBlend mode="normal" in="SourceGraphic" in2="effect1_dropShadow_1013_10566" result="shape"/>
</filter>
<linearGradient id="paint0_linear_1013_10566" x1="140.269" y1="127.78" x2="537.898" y2="442.972" gradientUnits="userSpaceOnUse">
<stop stop-color="#9013FE"/>
<stop offset="1" stop-color="#6610F2"/>
</linearGradient>
<linearGradient id="paint1_linear_1013_10566" x1="244.52" y1="215.745" x2="333.489" y2="366" gradientUnits="userSpaceOnUse">
<stop stop-color="white"/>
<stop offset="1" stop-color="#F1E5FC"/>
</linearGradient>
</defs>
</svg>
