<svg width="192" height="120" viewBox="0 0 192 120" fill="none" xmlns="http://www.w3.org/2000/svg">
<g clip-path="url(#clip0_1003_3081)">
<path d="M106.031 -0.176758L132.924 44.8001L185.432 67.659L156.447 25.7685L106.031 -0.176758Z" fill="url(#paint0_linear_1003_3081)"/>
<path d="M185.431 67.6594L191.523 60.6321C192.586 59.4068 192.284 57.3605 190.927 56.5984L169.5 44.6152L185.431 67.6594Z" fill="url(#paint1_linear_1003_3081)"/>
<path d="M185.43 67.6591L156.445 25.7686" stroke="white" stroke-width="1.04" stroke-miterlimit="10"/>
<path d="M156.449 25.7685L84.5095 38.9432L34.0938 12.9938L106.033 -0.176758L156.449 25.7685Z" fill="url(#paint2_linear_1003_3081)"/>
<path d="M156.449 104.105L84.5095 117.275L34.0938 91.3302L106.033 69.2881L156.449 104.105Z" fill="url(#paint3_linear_1003_3081)"/>
<path d="M34.0938 12.9941V91.331L84.5095 117.276V38.9436L34.0938 12.9941Z" fill="url(#paint4_linear_1003_3081)"/>
<path d="M156.447 25.7686V104.105L84.5078 117.276V38.9433L156.447 25.7686Z" fill="url(#paint5_radial_1003_3081)"/>
<path d="M106.031 -0.176758V35.0022L156.447 25.7685L106.031 -0.176758Z" fill="url(#paint6_linear_1003_3081)"/>
<path d="M105.966 0.282188L155.121 25.5706L84.5767 38.4801L35.4424 13.2169L105.966 0.303242M106.033 -0.155707L34.0938 12.9938L84.5095 38.9432L156.449 25.7685L106.033 -0.176758V-0.155707Z" fill="white"/>
<path d="M84.5057 38.9436L61.6841 91.331L9.67188 62.6152L34.0899 12.9941L84.5057 38.9436Z" fill="url(#paint7_linear_1003_3081)"/>
<path d="M9.6597 62.6152L0.706704 67.3394C0.489407 67.4691 0.308917 67.6524 0.182478 67.8719C0.0560396 68.0914 -0.0121219 68.3398 -0.0154935 68.5932C-0.0188651 68.8466 0.0426658 69.0967 0.16322 69.3195C0.283774 69.5423 0.459323 69.7303 0.673094 69.8658L48.1899 96.9226C48.3413 97.0103 48.5113 97.0607 48.6859 97.0695C48.8605 97.0783 49.0347 97.0452 49.1941 96.9731L61.6846 91.3479L9.6597 62.6152Z" fill="url(#paint8_linear_1003_3081)"/>
<path d="M49.1875 96.956L61.6822 91.3307L84.5037 38.9434" stroke="white" stroke-width="1.04" stroke-miterlimit="10"/>
</g>
<defs>
<linearGradient id="paint0_linear_1003_3081" x1="159.123" y1="56.1348" x2="120.529" y2="-7.16694" gradientUnits="userSpaceOnUse">
<stop offset="0.02" stop-color="#F6F6F6"/>
<stop offset="0.03" stop-color="#F4F4F4"/>
<stop offset="0.49" stop-color="#B4B4B3"/>
<stop offset="0.82" stop-color="#8C8C8B"/>
<stop offset="0.99" stop-color="#7D7D7C"/>
</linearGradient>
<linearGradient id="paint1_linear_1003_3081" x1="179.272" y1="54.2994" x2="168.499" y2="68.6263" gradientUnits="userSpaceOnUse">
<stop offset="0.02" stop-color="#F6F6F6"/>
<stop offset="0.03" stop-color="#F4F4F4"/>
<stop offset="0.49" stop-color="#B4B4B3"/>
<stop offset="0.82" stop-color="#8C8C8B"/>
<stop offset="0.99" stop-color="#7D7D7C"/>
</linearGradient>
<linearGradient id="paint2_linear_1003_3081" x1="43.7946" y1="-27.5157" x2="158.541" y2="76.5709" gradientUnits="userSpaceOnUse">
<stop offset="0.02" stop-color="#F6F6F6"/>
<stop offset="0.03" stop-color="#F4F4F4"/>
<stop offset="0.49" stop-color="#B4B4B3"/>
<stop offset="0.82" stop-color="#8C8C8B"/>
<stop offset="0.99" stop-color="#7D7D7C"/>
</linearGradient>
<linearGradient id="paint3_linear_1003_3081" x1="34.0938" y1="93.2797" x2="156.449" y2="93.2797" gradientUnits="userSpaceOnUse">
<stop stop-color="#BFBFBE"/>
<stop offset="0.01" stop-color="#C2C2C1"/>
<stop offset="0.12" stop-color="#E3E3E3"/>
<stop offset="0.21" stop-color="#F8F8F8"/>
<stop offset="0.27" stop-color="white"/>
<stop offset="0.41" stop-color="#D9D9D8"/>
<stop offset="0.58" stop-color="#B1B1B0"/>
<stop offset="0.66" stop-color="#A2A2A1"/>
<stop offset="0.74" stop-color="#A6A6A5"/>
<stop offset="0.82" stop-color="#B2B2B1"/>
<stop offset="0.9" stop-color="#C6C6C6"/>
<stop offset="0.99" stop-color="#E6E6E6"/>
</linearGradient>
<linearGradient id="paint4_linear_1003_3081" x1="74.4684" y1="61.3689" x2="-97.039" y2="103.774" gradientUnits="userSpaceOnUse">
<stop offset="0.02" stop-color="#F6F6F6"/>
<stop offset="0.03" stop-color="#F4F4F4"/>
<stop offset="0.49" stop-color="#B4B4B3"/>
<stop offset="0.82" stop-color="#8C8C8B"/>
<stop offset="0.99" stop-color="#7D7D7C"/>
</linearGradient>
<radialGradient id="paint5_radial_1003_3081" cx="0" cy="0" r="1" gradientUnits="userSpaceOnUse" gradientTransform="translate(159.459 59.5496) scale(272.588 310.438)">
<stop offset="0.02" stop-color="#F6F6F6"/>
<stop offset="0.03" stop-color="#F4F4F4"/>
<stop offset="0.49" stop-color="#B4B4B3"/>
<stop offset="0.82" stop-color="#8C8C8B"/>
<stop offset="0.99" stop-color="#7D7D7C"/>
</radialGradient>
<linearGradient id="paint6_linear_1003_3081" x1="156.203" y1="-11.7599" x2="-6.28649" y2="147.379" gradientUnits="userSpaceOnUse">
<stop offset="0.02" stop-color="#F6F6F6"/>
<stop offset="0.03" stop-color="#F4F4F4"/>
<stop offset="0.49" stop-color="#B4B4B3"/>
<stop offset="0.82" stop-color="#8C8C8B"/>
<stop offset="0.99" stop-color="#7D7D7C"/>
</linearGradient>
<linearGradient id="paint7_linear_1003_3081" x1="36.241" y1="80.7415" x2="82.9552" y2="-47.7276" gradientUnits="userSpaceOnUse">
<stop offset="0.02" stop-color="#F6F6F6"/>
<stop offset="0.03" stop-color="#F4F4F4"/>
<stop offset="0.49" stop-color="#B4B4B3"/>
<stop offset="0.82" stop-color="#8C8C8B"/>
<stop offset="0.99" stop-color="#7D7D7C"/>
</linearGradient>
<linearGradient id="paint8_linear_1003_3081" x1="25.5029" y1="93.4363" x2="70.6658" y2="-21.2501" gradientUnits="userSpaceOnUse">
<stop offset="0.02" stop-color="#F6F6F6"/>
<stop offset="0.03" stop-color="#F4F4F4"/>
<stop offset="0.49" stop-color="#B4B4B3"/>
<stop offset="0.82" stop-color="#8C8C8B"/>
<stop offset="0.99" stop-color="#7D7D7C"/>
</linearGradient>
<clipPath id="clip0_1003_3081">
<rect width="192" height="120" fill="white"/>
</clipPath>
</defs>
</svg>
