<svg width="600" height="600" viewBox="0 0 600 600" fill="none" xmlns="http://www.w3.org/2000/svg">
<rect width="600" height="600" rx="16" fill="#FF4088" fill-opacity="0.05"/>
<path fill-rule="evenodd" clip-rule="evenodd" d="M321.667 135.563L430.619 198.992C443.476 206.516 451.476 220.325 451.476 235.182V365.087C451.476 381.563 442.619 396.801 428.143 404.897L320.048 465.754C312.992 469.727 305.025 471.799 296.927 471.766C288.83 471.732 280.88 469.595 273.857 465.563L174.333 408.325C158.714 399.278 149 382.611 149 364.611V241.278C149 223.087 158.429 206.23 173.857 196.706L271.762 136.23C287 126.801 306.238 126.611 321.667 135.563Z" fill="#FF4088" stroke="#C9177E" stroke-width="27"/>
<path fill-rule="evenodd" clip-rule="evenodd" d="M224.617 398.232V200.898H265.951V272.803H334.427V200.898H375.855V398.232H334.427V311.946H265.951V398.232H224.617Z" fill="white"/>
</svg>
