<svg width="48" height="48" viewBox="0 0 48 48" fill="none" xmlns="http://www.w3.org/2000/svg">
<rect width="48" height="48" rx="4" fill="#E02229" fill-opacity="0.05"/>
<path d="M30.963 11.1855C31.5216 11.4383 31.967 11.8458 32.3975 12.2602C32.7437 12.6017 32.7171 12.8965 32.3328 13.2278C31.7197 13.7555 31.2517 14.4274 30.9723 15.1813C28.0342 22.778 25.0799 30.3672 22.1095 37.9488C21.746 38.8812 21.1321 39.5688 20.21 39.9831C20.1959 39.7866 20.2358 39.59 20.3254 39.4139C20.4143 39.2375 20.4016 39.0849 20.1685 39.028C20.5504 38.6865 20.9347 38.353 21.1136 37.8464C21.2867 37.3569 21.4921 36.8776 21.6814 36.3927L27.5806 21.2636C27.7607 21.0997 27.9049 20.9358 27.6372 20.7229C27.4883 20.609 27.5749 20.469 27.6256 20.3381C28.4531 18.2173 29.2863 16.0977 30.1045 13.9734C30.2706 13.5397 30.5211 13.1333 30.5661 12.6575C30.7599 12.5698 31.075 12.6575 31.1258 12.3717C31.1684 12.127 30.9296 11.9904 30.7795 11.8333L30.6641 11.7194C30.7576 11.5384 30.7576 11.3039 30.963 11.1855Z" fill="#ECECEC"/>
<path d="M15.9547 38.7625C15.7298 38.588 15.5695 38.3452 15.4986 38.0717C15.4277 37.7982 15.4501 37.5093 15.5624 37.2496C16.0367 36.2171 16.4048 35.1448 16.8179 34.0895C17.5173 32.3079 18.2304 30.5332 18.9263 28.7505C19.5402 27.1795 20.1357 25.6017 20.7485 24.0296C21.4328 22.2742 22.1333 20.5234 22.8176 18.768C23.6323 16.6825 24.4401 14.5955 25.241 12.507C25.3017 12.3337 25.411 12.1809 25.5561 12.0664L25.8157 12.3339C25.848 12.5946 26.0465 12.754 26.2162 12.9191C26.3858 13.0841 26.395 13.2458 26.3154 13.4507C25.2822 16.0849 24.2524 18.7202 23.2261 21.3567C22.9457 22.0796 22.6064 22.7831 22.4483 23.5481L22.2695 23.7189C21.5274 24.0797 20.902 24.592 20.5985 25.3536C19.3152 28.5718 18.0596 31.8013 16.8075 35.0298C16.4417 35.9724 15.9467 36.9093 16.4867 37.952C16.0251 38.0385 16.1359 38.4939 15.9547 38.7625Z" fill="#C9C9CB"/>
<path d="M25.5595 12.0651C25.4144 12.1796 25.3052 12.3324 25.2445 12.5056C24.4405 14.5949 23.6327 16.682 22.821 18.7667C22.1356 20.5221 21.4362 22.2729 20.7519 24.0283C20.1391 25.6004 19.5437 27.1782 18.9297 28.7492C18.2373 30.5319 17.5207 32.3066 16.8214 34.0882C16.4082 35.1434 16.0401 36.2158 15.5658 37.2483C15.5236 37.3641 15.4916 37.4834 15.47 37.6046C15.2519 36.9056 15.3835 36.2386 15.6397 35.5749C17.4861 30.8407 19.3325 26.1062 21.1789 21.3713C22.3744 18.3038 23.5723 15.2366 24.7725 12.1698C24.9002 11.808 24.9627 11.427 24.9571 11.0439C25.3264 11.2841 25.331 11.7395 25.5595 12.0651Z" fill="#C2C2C4"/>
<path d="M25.5589 12.0654C25.3281 11.7398 25.3281 11.2844 24.9496 11.0408V10.8769C25.0234 10.8166 25.0223 10.7631 24.9427 10.7039C24.7372 9.86716 24.9253 9.61785 25.792 9.60419C26.1451 9.60419 26.5052 9.56662 26.8456 9.70664C26.6379 9.88537 26.6356 10.1381 26.601 10.3783C26.0713 10.6185 26.4163 10.878 26.5837 11.1342C26.477 11.1717 26.382 11.2357 26.3078 11.3201C26.2336 11.4045 26.1827 11.5063 26.1601 11.6157C26.0957 11.8728 25.9809 12.1149 25.822 12.3283L25.5589 12.0654Z" fill="#ACAEB1"/>
<path d="M19.967 40.0861C18.9283 40.4925 17.9382 40.357 17 39.7753C17.1154 39.5078 17.0692 39.1423 17.4616 39.0479L17.6151 39.1458C17.6001 39.4212 17.8228 39.5726 17.9613 39.7582C18.199 40.0758 18.364 40.0462 18.5475 39.6853C18.5884 39.5956 18.6238 39.5037 18.6537 39.4099L18.8256 39.3825C19.1895 39.4056 19.5518 39.3186 19.8642 39.1332L20.0258 39.1082C20.0466 39.2734 20.0173 39.441 19.9416 39.5897C19.8596 39.7559 19.8077 39.929 19.967 40.0861Z" fill="#DBDBDC"/>
<path d="M26.5981 10.3839C26.6328 10.1437 26.6351 9.89099 26.8428 9.71226C26.8893 9.70187 26.9376 9.70276 26.9836 9.71486C27.0296 9.72695 27.072 9.74989 27.1071 9.7817C27.1212 9.81252 27.1462 9.83729 27.1773 9.8515C27.2084 9.86571 27.2437 9.86841 27.2767 9.85911C27.9495 9.82268 28.5461 10.0936 29.137 10.3429C28.8923 10.3885 28.7908 10.5592 28.755 10.7789C28.0577 10.5506 27.332 10.4177 26.5981 10.3839V10.3839Z" fill="#C2C2C4"/>
<path d="M17.4647 39.0478C17.07 39.1422 17.1185 39.5031 17.003 39.7752C16.5576 39.5515 16.1927 39.1982 15.9575 38.7632C16.1387 38.4945 16.0279 38.0392 16.4895 37.9492C16.7422 38.2976 16.9003 38.7301 17.3585 38.8941L17.4647 39.0478Z" fill="#D2D3D4"/>
<path d="M30.9621 11.1864C30.7566 11.3003 30.7566 11.5393 30.6551 11.7158C30.3189 11.5552 29.9983 11.3647 29.6973 11.1466C29.7307 10.9906 29.7654 10.8347 29.7988 10.6787C30.2454 10.7094 30.5801 11.0031 30.9621 11.1864Z" fill="#DBDBDC"/>
<path d="M29.7993 10.6752C29.7658 10.8311 29.7312 10.9871 29.6977 11.1431C29.3726 11.0509 29.057 10.9289 28.7549 10.7788C28.7953 10.5591 28.8922 10.3883 29.1369 10.3428C29.3111 10.3803 29.4923 10.402 29.6112 10.5591L29.7266 10.6148C29.775 10.6023 29.7993 10.6285 29.7993 10.6752Z" fill="#D2D3D4"/>
<path d="M19.9677 40.0852C19.8085 39.9281 19.8592 39.7551 19.9412 39.5889C20.0169 39.4401 20.0462 39.2726 20.0254 39.1074L20.1639 39.0322C20.3947 39.0891 20.4097 39.2417 20.3208 39.4181C20.2312 39.5942 20.1914 39.7908 20.2054 39.9873C20.1761 40.0206 20.1394 40.0467 20.0982 40.0637C20.0569 40.0806 20.0123 40.088 19.9677 40.0852V40.0852Z" fill="#EBE6E6"/>
<path d="M27.2771 9.85933C27.2441 9.86863 27.2088 9.86593 27.1777 9.85172C27.1465 9.83751 27.1216 9.81274 27.1074 9.78192C27.2032 9.725 27.2251 9.82404 27.2771 9.85933Z" fill="#ACAEB1"/>
<path d="M24.9375 10.709C25.0171 10.7636 25.0183 10.8228 24.9444 10.882L24.9375 10.709Z" fill="#C2C2C4"/>
<path d="M29.7233 10.6136L29.6079 10.5586L29.7233 10.6136Z" fill="#C2C2C4"/>
<path d="M20.1639 39.033L20.0254 39.1082L19.8638 39.1332C19.8586 38.9493 19.892 38.7664 19.9619 38.5959C20.4812 37.2765 20.9901 35.9537 21.5037 34.632C21.5498 34.5125 21.626 34.3987 21.4967 34.2848C21.5417 34.2244 21.5735 34.1556 21.5904 34.0826C21.6073 34.0095 21.6088 33.9339 21.5948 33.8602C21.7772 33.8773 21.8395 33.7589 21.8937 33.6166C22.0322 33.2455 22.1799 32.8778 22.3241 32.509C23.5139 29.4649 24.7072 26.4243 25.8877 23.378C26.0377 22.9898 26.2882 22.6176 26.2339 22.1679L26.6955 21.7399C26.9079 21.5521 27.1248 21.3699 27.3302 21.1707C27.4941 21.0159 27.5403 21.1115 27.5749 21.2629L21.6768 36.3977C21.4875 36.8826 21.2821 37.3619 21.109 37.8514C20.9301 38.358 20.5458 38.6915 20.1639 39.033Z" fill="#E02229"/>
<path d="M28.7544 10.778C29.0565 10.9282 29.3721 11.0501 29.6972 11.1423C29.9983 11.3604 30.3189 11.5509 30.6551 11.7115L30.7705 11.8253C30.9251 11.9824 31.164 12.119 31.1167 12.3637C31.0659 12.6506 30.7508 12.5618 30.557 12.6495C30.4087 12.5992 30.2503 12.5851 30.0954 12.6085L29.1722 12.4002L28.3944 12.1372L27.7216 11.8435C27.3396 11.6022 26.9138 11.4212 26.5676 11.1309C26.4002 10.8748 26.0552 10.6152 26.5849 10.375C27.3234 10.4102 28.0535 10.5458 28.7544 10.778V10.778Z" fill="#343433"/>
<path d="M30.1052 12.6174C30.2602 12.5941 30.4186 12.6081 30.5668 12.6584C30.5229 13.1342 30.2725 13.5406 30.1052 13.9744C29.287 16.0986 28.4538 18.2182 27.6264 20.339C27.5756 20.47 27.4891 20.6054 27.6379 20.7238C27.9057 20.9367 27.7614 21.1006 27.5814 21.2645C27.5468 21.1131 27.5006 21.0175 27.3367 21.1723C27.1313 21.3681 26.9144 21.5503 26.702 21.7415C26.5405 21.4626 26.709 21.2145 26.8013 20.9743C27.6518 18.7715 28.4988 16.5676 29.3816 14.3717C29.6159 13.7865 29.7463 13.1547 30.1052 12.6174Z" fill="#EBE6E6"/>
<path d="M17.3561 38.8938C16.8945 38.7299 16.7399 38.2973 16.4872 37.949C15.9471 36.9062 16.4422 35.9693 16.808 35.0268C18.0635 31.7972 19.3156 28.5676 20.5989 25.3505C20.9024 24.589 21.5279 24.0767 22.2699 23.7158C22.1857 24.2509 21.8429 24.7051 21.7748 25.2447C21.5844 25.3585 21.5694 25.5031 21.6825 25.6773C21.4898 25.7125 21.4632 25.8776 21.4079 26.0188C21.2925 26.3216 21.1655 26.621 21.0547 26.9295C20.6047 28.1817 20.0277 29.3758 19.6699 30.6542C19.3733 30.7817 19.266 30.9958 19.3503 31.3077C19.0814 32.0089 18.8033 32.7067 18.5425 33.4114C18.1178 34.5646 17.5523 35.6722 17.2557 36.8721C17.123 37.3991 17.0642 37.9592 17.3469 38.4817C17.3504 38.6183 17.3527 38.7561 17.3561 38.8938Z" fill="#B75E4B"/>
<path d="M26.5807 11.1387C26.9269 11.429 27.3516 11.61 27.7347 11.8513C27.6724 11.9936 27.6043 12.1348 27.5478 12.2793C26.2933 15.4782 25.0332 18.6747 23.7961 21.8804C23.6299 22.3084 23.3864 22.7262 23.4037 23.2112L23.1441 23.333L22.4517 23.547C22.6098 22.782 22.949 22.0785 23.2295 21.3556C24.2519 18.7184 25.2817 16.083 26.3187 13.4496C26.3984 13.2447 26.3926 13.0887 26.2195 12.918C26.0464 12.7472 25.8514 12.5935 25.8191 12.3328C25.9779 12.1194 26.0928 11.8773 26.1572 11.6202C26.1798 11.5108 26.2307 11.409 26.3049 11.3246C26.3791 11.2402 26.4741 11.1762 26.5807 11.1387V11.1387Z" fill="#C2C2C4"/>
<path d="M22.4516 23.548L23.144 23.334C23.0286 23.8952 22.7978 24.4223 22.5947 24.9573C22.5209 25.1565 22.4701 25.4036 22.1828 25.4366C22.0985 25.2658 21.9439 25.2408 21.7754 25.2442C21.8435 24.7046 22.1862 24.2504 22.2705 23.7153L22.4516 23.548Z" fill="#AC1D21"/>
<path d="M26.2383 22.166C26.2879 22.6157 26.0375 22.9879 25.8921 23.3761C24.7162 26.4247 23.5183 29.4653 22.3285 32.5093C22.1843 32.8782 22.0366 33.2459 21.8981 33.617C21.8439 33.7593 21.7827 33.8777 21.5992 33.8606C21.448 33.7559 21.2946 33.7172 21.1468 33.8606C21.1112 33.8947 21.0876 33.9393 21.0797 33.9877C21.0718 34.0361 21.08 34.0858 21.103 34.1292C21.1838 34.3011 21.3442 34.292 21.5011 34.2841C21.6304 34.3979 21.5542 34.5117 21.508 34.6313C20.9945 35.9529 20.4856 37.2757 19.9663 38.5951C19.8964 38.7656 19.863 38.9486 19.8682 39.1324C19.5558 39.3178 19.1934 39.4048 18.8296 39.3817C18.8296 39.0402 18.9761 38.7488 19.095 38.446C19.8367 36.5434 20.5802 34.6411 21.3257 32.7393C21.9858 31.0636 22.6551 29.3913 23.321 27.7168C23.6003 27.8477 23.8876 27.9114 24.0238 27.5551C24.1392 27.25 23.9615 27.0588 23.6614 26.9711C23.7387 26.3336 24.0665 25.7781 24.2684 25.1804C24.5385 24.3836 24.9481 23.6334 25.1293 22.8035L25.3936 22.6373C25.7167 22.5553 25.951 22.314 26.2383 22.166Z" fill="#D21E24"/>
<path d="M25.1284 22.8076C24.9473 23.6375 24.5376 24.3865 24.2675 25.1846C24.0656 25.7822 23.7378 26.3377 23.6605 26.9752C23.2139 27.1403 23.1585 27.2621 23.3201 27.7209C22.6542 29.3954 21.9849 31.0677 21.3248 32.7434C20.5755 34.6445 19.8319 36.5467 19.0941 38.4501C18.9787 38.7529 18.8276 39.0489 18.8287 39.3858L18.6568 39.4132C18.426 39.3642 18.1767 39.3688 17.9644 39.2344C18.2794 38.4137 18.5898 37.5929 18.9083 36.7744C19.6584 34.846 20.4155 32.9198 21.1586 30.9891C21.2221 30.8229 21.3964 30.6419 21.2117 30.4427C21.7322 30.1012 21.8003 29.9236 21.6595 29.3043C21.8231 29.1277 21.9494 28.9206 22.0311 28.6953C22.4615 27.5569 22.9139 26.4345 23.3374 25.2973C23.6074 24.5732 23.9721 23.8811 24.0933 23.1082L24.4395 22.9807L25.1284 22.8076Z" fill="#C31D23"/>
<path d="M21.2124 30.4355C21.3971 30.6347 21.2228 30.8157 21.1593 30.9819C20.4162 32.9172 19.6591 34.8387 18.909 36.7672C18.5905 37.5856 18.2801 38.4064 17.9651 39.2272L17.6189 39.1418L17.4654 39.0439L17.3569 38.8902C17.3569 38.7525 17.3569 38.6147 17.3477 38.477C17.3623 38.4528 17.3754 38.4277 17.3869 38.4019L19.9938 31.8072C20.0253 31.7517 20.0358 31.6869 20.0236 31.6244C20.0113 31.5619 19.9771 31.5057 19.9269 31.4657C20.011 31.3956 20.0741 31.3041 20.1095 31.2012C20.1449 31.0983 20.1512 30.9879 20.1277 30.8817C20.4427 30.8499 20.3954 30.5186 20.5673 30.3672C20.7739 30.44 20.9949 30.4634 21.2124 30.4355Z" fill="#B71D22"/>
<path d="M17.6174 39.1445L17.9636 39.2299C18.1748 39.3642 18.4252 39.3597 18.656 39.4086C18.6261 39.5024 18.5907 39.5944 18.5499 39.6841C18.3664 40.045 18.2037 40.0746 17.9636 39.757C17.8251 39.5714 17.6024 39.42 17.6174 39.1445Z" fill="#D2D3D4"/>
<path d="M26.2381 22.1643C25.9508 22.3123 25.7165 22.5536 25.3922 22.6367C25.2837 22.4694 25.3599 22.3077 25.4188 22.1506C25.5988 21.6736 25.78 21.1978 25.9657 20.7231C26.7666 18.6797 27.5814 16.6386 28.3695 14.5918C28.65 13.8678 29.0043 13.1688 29.1843 12.4072L30.1075 12.6155C29.7486 13.1529 29.6182 13.7847 29.3828 14.3709C28.5 16.5623 27.6518 18.7662 26.8024 20.9735C26.7101 21.2137 26.5416 21.4619 26.7032 21.7408L26.2381 22.1643Z" fill="#DBDBDC"/>
<path d="M21.4966 34.2845C21.3396 34.2925 21.1792 34.3016 21.0984 34.1297C21.0754 34.0863 21.0673 34.0366 21.0752 33.9882C21.0831 33.9398 21.1066 33.8952 21.1423 33.8611C21.29 33.7165 21.4435 33.7552 21.5947 33.8611C21.6085 33.9345 21.6069 34.01 21.59 34.0828C21.5731 34.1556 21.5413 34.2243 21.4966 34.2845Z" fill="#D4856F"/>
<path d="M24.4413 22.975L24.0951 23.1025L23.4027 23.2163C23.3854 22.7314 23.6335 22.3136 23.7951 21.8856C25.0322 18.6799 26.2923 15.4833 27.5468 12.2845C27.6033 12.1399 27.6714 11.9987 27.7337 11.8564L28.4065 12.1501C28.4118 12.3068 28.3806 12.4626 28.3153 12.6055C28.033 13.3014 27.7552 13.9989 27.4821 14.6978C26.5462 17.0998 25.6046 19.4995 24.6883 21.9083C24.5602 22.2396 24.259 22.5595 24.4413 22.975Z" fill="#C9C9CB"/>
<path d="M24.4413 22.9744C24.259 22.5589 24.5567 22.2379 24.6883 21.8998C25.6046 19.491 26.5462 17.0913 27.4821 14.6893C27.7545 13.9903 28.0322 13.2929 28.3153 12.597C28.3806 12.454 28.4118 12.2983 28.4065 12.1416L29.1843 12.4046C29.0043 13.1661 28.65 13.8651 28.3696 14.5891C27.5756 16.6382 26.7666 18.677 25.9658 20.7204C25.78 21.1951 25.5988 21.671 25.4188 22.148C25.3599 22.3051 25.2837 22.4667 25.3922 22.634C25.3045 22.6898 25.2168 22.7479 25.128 22.8002L24.4413 22.9744Z" fill="#D2D3D4"/>
<path d="M19.9258 31.4655C19.976 31.5055 20.0103 31.5617 20.0225 31.6242C20.0348 31.6867 20.0242 31.7515 19.9928 31.807L17.3859 38.4039C17.3744 38.4298 17.3613 38.4549 17.3466 38.4791C17.0639 37.9577 17.1228 37.3976 17.2555 36.8705C17.5555 35.673 18.1175 34.563 18.541 33.4065C18.7995 32.7018 19.0776 32.004 19.3488 31.3027C19.53 31.3904 19.665 31.6465 19.9258 31.4655Z" fill="#AC1D21"/>
<path d="M20.5668 30.3672C20.3949 30.5186 20.4422 30.8498 20.1271 30.8817C20.0713 30.8132 20.0012 30.7574 19.9216 30.7181C19.8419 30.6788 19.7545 30.657 19.6655 30.654C20.0267 29.3756 20.6037 28.1758 21.0503 26.9293C21.1657 26.6242 21.2811 26.3248 21.4035 26.0186C21.4589 25.8763 21.4854 25.7112 21.6781 25.6771C21.8535 25.8228 22.0105 25.7408 22.1663 25.6406C22.2263 25.907 22.1039 26.137 22.0174 26.376C21.7104 27.2275 21.2927 28.038 21.0688 28.9192C20.6903 28.9248 20.3833 29.0683 20.2437 29.4246C20.0983 29.8071 20.2864 30.1099 20.5668 30.3672Z" fill="#AC1D21"/>
<path d="M19.6657 30.6504C19.7547 30.6533 19.842 30.6752 19.9217 30.7145C20.0014 30.7538 20.0715 30.8096 20.1273 30.8781C20.1508 30.9842 20.1445 31.0947 20.1091 31.1976C20.0737 31.3005 20.0106 31.3919 19.9265 31.4621C19.6657 31.6431 19.5307 31.3869 19.3495 31.3004C19.2618 30.9953 19.3691 30.7768 19.6657 30.6504Z" fill="#D4856F"/>
<path d="M22.1678 25.6383C22.012 25.7385 21.8551 25.8205 21.6797 25.6748C21.5643 25.5006 21.5816 25.3537 21.772 25.2422C21.9405 25.2422 22.0951 25.2638 22.1793 25.4346C22.1782 25.5017 22.1736 25.57 22.1678 25.6383Z" fill="#D4856F"/>
<path d="M22.1679 25.6397C22.1679 25.5714 22.176 25.5031 22.1794 25.4359C22.4668 25.4029 22.5176 25.1558 22.5914 24.9566C22.7899 24.4216 23.0207 23.8945 23.1407 23.3333L23.4004 23.2115L24.0928 23.0977C23.9716 23.8706 23.607 24.5628 23.3369 25.2868C22.9134 26.4251 22.461 27.5499 22.0306 28.6848C21.9497 28.9113 21.8237 29.1195 21.6601 29.2973C21.5082 29.1144 21.3033 28.9817 21.0728 28.917C21.2966 28.0359 21.7144 27.2254 22.0213 26.3739C22.1079 26.136 22.2302 25.906 22.1679 25.6397Z" fill="#B71D22"/>
<path d="M23.3216 27.7173C23.16 27.262 23.2154 27.1367 23.662 26.9717C23.962 27.0593 24.1421 27.2506 24.0244 27.5557C23.8859 27.912 23.5985 27.8482 23.3216 27.7173Z" fill="#D4856F"/>
<path d="M21.0724 28.9189C21.3028 28.9833 21.5078 29.1156 21.6598 29.298C21.8006 29.9196 21.7325 30.0949 21.2121 30.4364C20.9939 30.4634 20.7724 30.4389 20.5658 30.3647C20.2854 30.1074 20.0973 29.8046 20.2473 29.421C20.387 29.0704 20.6939 28.9246 21.0724 28.9189Z" fill="#D4856F"/>
</svg>
