<svg width="410" height="90" viewBox="0 0 410 90" fill="none" xmlns="http://www.w3.org/2000/svg">
<rect width="410" height="90" rx="10" fill="white"/>
<rect x="0.25" y="0.25" width="409.5" height="89.5" rx="9.75" stroke="#231F20" stroke-opacity="0.3" stroke-width="0.5"/>
<path d="M76.2955 32.7273H81.4545L88.3636 49.5909H88.6364L95.5455 32.7273H100.705V56H96.6591V40.0114H96.4432L90.0114 55.9318H86.9886L80.5568 39.9773H80.3409V56H76.2955V32.7273ZM110.136 56.3523C109.03 56.3523 108.034 56.1553 107.148 55.7614C106.269 55.3598 105.572 54.7689 105.057 53.9886C104.549 53.2083 104.295 52.2462 104.295 51.1023C104.295 50.1174 104.477 49.303 104.841 48.6591C105.205 48.0152 105.701 47.5 106.33 47.1136C106.958 46.7273 107.667 46.4356 108.455 46.2386C109.25 46.0341 110.072 45.8864 110.92 45.7955C111.943 45.6894 112.773 45.5947 113.409 45.5114C114.045 45.4205 114.508 45.2841 114.795 45.1023C115.091 44.9129 115.239 44.6212 115.239 44.2273V44.1591C115.239 43.303 114.985 42.6402 114.477 42.1705C113.97 41.7008 113.239 41.4659 112.284 41.4659C111.277 41.4659 110.477 41.6856 109.886 42.125C109.303 42.5644 108.909 43.0833 108.705 43.6818L104.864 43.1364C105.167 42.0758 105.667 41.1894 106.364 40.4773C107.061 39.7576 107.913 39.2197 108.92 38.8636C109.928 38.5 111.042 38.3182 112.261 38.3182C113.102 38.3182 113.939 38.4167 114.773 38.6136C115.606 38.8106 116.367 39.1364 117.057 39.5909C117.746 40.0379 118.299 40.6477 118.716 41.4205C119.14 42.1932 119.352 43.1591 119.352 44.3182V56H115.398V53.6023H115.261C115.011 54.0871 114.659 54.5417 114.205 54.9659C113.758 55.3826 113.193 55.7197 112.511 55.9773C111.837 56.2273 111.045 56.3523 110.136 56.3523ZM111.205 53.3295C112.03 53.3295 112.746 53.1667 113.352 52.8409C113.958 52.5076 114.424 52.0682 114.75 51.5227C115.083 50.9773 115.25 50.3826 115.25 49.7386V47.6818C115.121 47.7879 114.902 47.8864 114.591 47.9773C114.288 48.0682 113.947 48.1477 113.568 48.2159C113.189 48.2841 112.814 48.3447 112.443 48.3977C112.072 48.4508 111.75 48.4962 111.477 48.5341C110.864 48.6174 110.314 48.7538 109.83 48.9432C109.345 49.1326 108.962 49.3977 108.682 49.7386C108.402 50.072 108.261 50.5038 108.261 51.0341C108.261 51.7917 108.538 52.3636 109.091 52.75C109.644 53.1364 110.348 53.3295 111.205 53.3295ZM127.602 45.7727V56H123.489V38.5455H127.42V41.5114H127.625C128.027 40.5341 128.667 39.7576 129.545 39.1818C130.432 38.6061 131.527 38.3182 132.83 38.3182C134.034 38.3182 135.083 38.5758 135.977 39.0909C136.879 39.6061 137.576 40.3523 138.068 41.3295C138.568 42.3068 138.814 43.4924 138.807 44.8864V56H134.693V45.5227C134.693 44.3561 134.39 43.4432 133.784 42.7841C133.186 42.125 132.356 41.7955 131.295 41.7955C130.576 41.7955 129.936 41.9545 129.375 42.2727C128.822 42.5833 128.386 43.0341 128.068 43.625C127.758 44.2159 127.602 44.9318 127.602 45.7727ZM148.011 56.3523C146.905 56.3523 145.909 56.1553 145.023 55.7614C144.144 55.3598 143.447 54.7689 142.932 53.9886C142.424 53.2083 142.17 52.2462 142.17 51.1023C142.17 50.1174 142.352 49.303 142.716 48.6591C143.08 48.0152 143.576 47.5 144.205 47.1136C144.833 46.7273 145.542 46.4356 146.33 46.2386C147.125 46.0341 147.947 45.8864 148.795 45.7955C149.818 45.6894 150.648 45.5947 151.284 45.5114C151.92 45.4205 152.383 45.2841 152.67 45.1023C152.966 44.9129 153.114 44.6212 153.114 44.2273V44.1591C153.114 43.303 152.86 42.6402 152.352 42.1705C151.845 41.7008 151.114 41.4659 150.159 41.4659C149.152 41.4659 148.352 41.6856 147.761 42.125C147.178 42.5644 146.784 43.0833 146.58 43.6818L142.739 43.1364C143.042 42.0758 143.542 41.1894 144.239 40.4773C144.936 39.7576 145.788 39.2197 146.795 38.8636C147.803 38.5 148.917 38.3182 150.136 38.3182C150.977 38.3182 151.814 38.4167 152.648 38.6136C153.481 38.8106 154.242 39.1364 154.932 39.5909C155.621 40.0379 156.174 40.6477 156.591 41.4205C157.015 42.1932 157.227 43.1591 157.227 44.3182V56H153.273V53.6023H153.136C152.886 54.0871 152.534 54.5417 152.08 54.9659C151.633 55.3826 151.068 55.7197 150.386 55.9773C149.712 56.2273 148.92 56.3523 148.011 56.3523ZM149.08 53.3295C149.905 53.3295 150.621 53.1667 151.227 52.8409C151.833 52.5076 152.299 52.0682 152.625 51.5227C152.958 50.9773 153.125 50.3826 153.125 49.7386V47.6818C152.996 47.7879 152.777 47.8864 152.466 47.9773C152.163 48.0682 151.822 48.1477 151.443 48.2159C151.064 48.2841 150.689 48.3447 150.318 48.3977C149.947 48.4508 149.625 48.4962 149.352 48.5341C148.739 48.6174 148.189 48.7538 147.705 48.9432C147.22 49.1326 146.837 49.3977 146.557 49.7386C146.277 50.072 146.136 50.5038 146.136 51.0341C146.136 51.7917 146.413 52.3636 146.966 52.75C147.519 53.1364 148.223 53.3295 149.08 53.3295ZM168.955 62.9091C167.477 62.9091 166.208 62.7083 165.148 62.3068C164.087 61.9129 163.235 61.3826 162.591 60.7159C161.947 60.0492 161.5 59.3106 161.25 58.5L164.955 57.6023C165.121 57.9432 165.364 58.2803 165.682 58.6136C166 58.9545 166.428 59.2348 166.966 59.4545C167.511 59.6818 168.197 59.7955 169.023 59.7955C170.189 59.7955 171.155 59.5114 171.92 58.9432C172.686 58.3826 173.068 57.4583 173.068 56.1705V52.8636H172.864C172.652 53.2879 172.341 53.7235 171.932 54.1705C171.53 54.6174 170.996 54.9924 170.33 55.2955C169.67 55.5985 168.841 55.75 167.841 55.75C166.5 55.75 165.284 55.4356 164.193 54.8068C163.11 54.1705 162.246 53.2235 161.602 51.9659C160.966 50.7008 160.648 49.1174 160.648 47.2159C160.648 45.2992 160.966 43.6818 161.602 42.3636C162.246 41.0379 163.114 40.0341 164.205 39.3523C165.295 38.6629 166.511 38.3182 167.852 38.3182C168.875 38.3182 169.716 38.4924 170.375 38.8409C171.042 39.1818 171.572 39.5947 171.966 40.0795C172.36 40.5568 172.659 41.0076 172.864 41.4318H173.091V38.5455H177.148V56.2841C177.148 57.7765 176.792 59.0114 176.08 59.9886C175.367 60.9659 174.394 61.697 173.159 62.1818C171.924 62.6667 170.523 62.9091 168.955 62.9091ZM168.989 52.5227C169.86 52.5227 170.602 52.3106 171.216 51.8864C171.83 51.4621 172.295 50.8523 172.614 50.0568C172.932 49.2614 173.091 48.3068 173.091 47.1932C173.091 46.0947 172.932 45.1326 172.614 44.3068C172.303 43.4811 171.841 42.8409 171.227 42.3864C170.621 41.9242 169.875 41.6932 168.989 41.6932C168.072 41.6932 167.307 41.9318 166.693 42.4091C166.08 42.8864 165.617 43.5417 165.307 44.375C164.996 45.2008 164.841 46.1402 164.841 47.1932C164.841 48.2614 164.996 49.197 165.307 50C165.625 50.7955 166.091 51.4167 166.705 51.8636C167.326 52.303 168.087 52.5227 168.989 52.5227ZM189.091 56.3409C187.341 56.3409 185.83 55.9773 184.557 55.25C183.292 54.5152 182.318 53.4773 181.636 52.1364C180.955 50.7879 180.614 49.2008 180.614 47.375C180.614 45.5795 180.955 44.0038 181.636 42.6477C182.326 41.2841 183.288 40.2235 184.523 39.4659C185.758 38.7008 187.208 38.3182 188.875 38.3182C189.951 38.3182 190.966 38.4924 191.92 38.8409C192.883 39.1818 193.731 39.7121 194.466 40.4318C195.208 41.1515 195.792 42.0682 196.216 43.1818C196.64 44.2879 196.852 45.6061 196.852 47.1364V48.3977H182.545V45.625H192.909C192.902 44.8371 192.731 44.1364 192.398 43.5227C192.064 42.9015 191.598 42.4129 191 42.0568C190.409 41.7008 189.72 41.5227 188.932 41.5227C188.091 41.5227 187.352 41.7273 186.716 42.1364C186.08 42.5379 185.583 43.0682 185.227 43.7273C184.879 44.3788 184.701 45.0947 184.693 45.875V48.2955C184.693 49.3106 184.879 50.1818 185.25 50.9091C185.621 51.6288 186.14 52.1818 186.807 52.5682C187.473 52.947 188.254 53.1364 189.148 53.1364C189.746 53.1364 190.288 53.053 190.773 52.8864C191.258 52.7121 191.678 52.4583 192.034 52.125C192.39 51.7917 192.659 51.3788 192.841 50.8864L196.682 51.3182C196.439 52.3333 195.977 53.2197 195.295 53.9773C194.621 54.7273 193.758 55.3106 192.705 55.7273C191.652 56.1364 190.447 56.3409 189.091 56.3409ZM223.861 38.5455L217.645 56H213.099L206.884 38.5455H211.27L215.281 51.5114H215.463L219.486 38.5455H223.861ZM226.707 56V38.5455H230.821V56H226.707ZM228.776 36.0682C228.124 36.0682 227.563 35.8523 227.094 35.4205C226.624 34.9811 226.389 34.4545 226.389 33.8409C226.389 33.2197 226.624 32.6932 227.094 32.2614C227.563 31.822 228.124 31.6023 228.776 31.6023C229.435 31.6023 229.995 31.822 230.457 32.2614C230.927 32.6932 231.162 33.2197 231.162 33.8409C231.162 34.4545 230.927 34.9811 230.457 35.4205C229.995 35.8523 229.435 36.0682 228.776 36.0682ZM240.074 56.3523C238.968 56.3523 237.972 56.1553 237.085 55.7614C236.206 55.3598 235.509 54.7689 234.994 53.9886C234.487 53.2083 234.233 52.2462 234.233 51.1023C234.233 50.1174 234.415 49.303 234.778 48.6591C235.142 48.0152 235.638 47.5 236.267 47.1136C236.896 46.7273 237.604 46.4356 238.392 46.2386C239.188 46.0341 240.009 45.8864 240.858 45.7955C241.881 45.6894 242.71 45.5947 243.347 45.5114C243.983 45.4205 244.445 45.2841 244.733 45.1023C245.028 44.9129 245.176 44.6212 245.176 44.2273V44.1591C245.176 43.303 244.922 42.6402 244.415 42.1705C243.907 41.7008 243.176 41.4659 242.222 41.4659C241.214 41.4659 240.415 41.6856 239.824 42.125C239.241 42.5644 238.847 43.0833 238.642 43.6818L234.801 43.1364C235.104 42.0758 235.604 41.1894 236.301 40.4773C236.998 39.7576 237.85 39.2197 238.858 38.8636C239.866 38.5 240.979 38.3182 242.199 38.3182C243.04 38.3182 243.877 38.4167 244.71 38.6136C245.544 38.8106 246.305 39.1364 246.994 39.5909C247.684 40.0379 248.237 40.6477 248.653 41.4205C249.078 42.1932 249.29 43.1591 249.29 44.3182V56H245.335V53.6023H245.199C244.949 54.0871 244.597 54.5417 244.142 54.9659C243.695 55.3826 243.131 55.7197 242.449 55.9773C241.775 56.2273 240.983 56.3523 240.074 56.3523ZM241.142 53.3295C241.968 53.3295 242.684 53.1667 243.29 52.8409C243.896 52.5076 244.362 52.0682 244.688 51.5227C245.021 50.9773 245.188 50.3826 245.188 49.7386V47.6818C245.059 47.7879 244.839 47.8864 244.528 47.9773C244.225 48.0682 243.884 48.1477 243.506 48.2159C243.127 48.2841 242.752 48.3447 242.381 48.3977C242.009 48.4508 241.688 48.4962 241.415 48.5341C240.801 48.6174 240.252 48.7538 239.767 48.9432C239.282 49.1326 238.9 49.3977 238.619 49.7386C238.339 50.072 238.199 50.5038 238.199 51.0341C238.199 51.7917 238.475 52.3636 239.028 52.75C239.581 53.1364 240.286 53.3295 241.142 53.3295ZM274.193 39.125C274.087 38.1326 273.64 37.3598 272.852 36.8068C272.072 36.2538 271.057 35.9773 269.807 35.9773C268.928 35.9773 268.174 36.1098 267.545 36.375C266.917 36.6402 266.436 37 266.102 37.4545C265.769 37.9091 265.598 38.428 265.591 39.0114C265.591 39.4962 265.701 39.9167 265.92 40.2727C266.148 40.6288 266.455 40.9318 266.841 41.1818C267.227 41.4242 267.655 41.6288 268.125 41.7955C268.595 41.9621 269.068 42.1023 269.545 42.2159L271.727 42.7614C272.606 42.9659 273.451 43.2424 274.261 43.5909C275.08 43.9394 275.811 44.3788 276.455 44.9091C277.106 45.4394 277.621 46.0795 278 46.8295C278.379 47.5795 278.568 48.4583 278.568 49.4659C278.568 50.8295 278.22 52.0303 277.523 53.0682C276.826 54.0985 275.818 54.9053 274.5 55.4886C273.189 56.0644 271.602 56.3523 269.739 56.3523C267.928 56.3523 266.356 56.072 265.023 55.5114C263.697 54.9508 262.659 54.1326 261.909 53.0568C261.167 51.9811 260.765 50.6705 260.705 49.125H264.852C264.913 49.9356 265.163 50.6098 265.602 51.1477C266.042 51.6856 266.614 52.0871 267.318 52.3523C268.03 52.6174 268.826 52.75 269.705 52.75C270.621 52.75 271.424 52.6136 272.114 52.3409C272.811 52.0606 273.356 51.6742 273.75 51.1818C274.144 50.6818 274.345 50.0985 274.352 49.4318C274.345 48.8258 274.167 48.3258 273.818 47.9318C273.47 47.5303 272.981 47.197 272.352 46.9318C271.731 46.6591 271.004 46.4167 270.17 46.2045L267.523 45.5227C265.606 45.0303 264.091 44.2841 262.977 43.2841C261.871 42.2765 261.318 40.9394 261.318 39.2727C261.318 37.9015 261.689 36.7008 262.432 35.6705C263.182 34.6402 264.201 33.8409 265.489 33.2727C266.777 32.697 268.235 32.4091 269.864 32.4091C271.515 32.4091 272.962 32.697 274.205 33.2727C275.455 33.8409 276.436 34.6326 277.148 35.6477C277.86 36.6553 278.227 37.8144 278.25 39.125H274.193ZM282.145 56V38.5455H286.259V56H282.145ZM284.213 36.0682C283.562 36.0682 283.001 35.8523 282.531 35.4205C282.062 34.9811 281.827 34.4545 281.827 33.8409C281.827 33.2197 282.062 32.6932 282.531 32.2614C283.001 31.822 283.562 31.6023 284.213 31.6023C284.872 31.6023 285.433 31.822 285.895 32.2614C286.365 32.6932 286.599 33.2197 286.599 33.8409C286.599 34.4545 286.365 34.9811 285.895 35.4205C285.433 35.8523 284.872 36.0682 284.213 36.0682ZM299.205 38.5455V41.7273H289.17V38.5455H299.205ZM291.648 34.3636H295.761V50.75C295.761 51.303 295.845 51.7273 296.011 52.0227C296.186 52.3106 296.413 52.5076 296.693 52.6136C296.973 52.7197 297.284 52.7727 297.625 52.7727C297.883 52.7727 298.117 52.7538 298.33 52.7159C298.549 52.678 298.716 52.6439 298.83 52.6136L299.523 55.8295C299.303 55.9053 298.989 55.9886 298.58 56.0795C298.178 56.1705 297.686 56.2235 297.102 56.2386C296.072 56.2689 295.144 56.1136 294.318 55.7727C293.492 55.4242 292.837 54.8864 292.352 54.1591C291.875 53.4318 291.64 52.5227 291.648 51.4318V34.3636ZM310.185 56.3409C308.435 56.3409 306.923 55.9773 305.651 55.25C304.385 54.5152 303.412 53.4773 302.73 52.1364C302.048 50.7879 301.707 49.2008 301.707 47.375C301.707 45.5795 302.048 44.0038 302.73 42.6477C303.42 41.2841 304.382 40.2235 305.616 39.4659C306.851 38.7008 308.302 38.3182 309.969 38.3182C311.045 38.3182 312.06 38.4924 313.014 38.8409C313.976 39.1818 314.825 39.7121 315.56 40.4318C316.302 41.1515 316.885 42.0682 317.31 43.1818C317.734 44.2879 317.946 45.6061 317.946 47.1364V48.3977H303.639V45.625H314.003C313.995 44.8371 313.825 44.1364 313.491 43.5227C313.158 42.9015 312.692 42.4129 312.094 42.0568C311.503 41.7008 310.813 41.5227 310.026 41.5227C309.185 41.5227 308.446 41.7273 307.81 42.1364C307.173 42.5379 306.677 43.0682 306.321 43.7273C305.973 44.3788 305.795 45.0947 305.787 45.875V48.2955C305.787 49.3106 305.973 50.1818 306.344 50.9091C306.715 51.6288 307.234 52.1818 307.901 52.5682C308.567 52.947 309.348 53.1364 310.241 53.1364C310.84 53.1364 311.382 53.053 311.866 52.8864C312.351 52.7121 312.772 52.4583 313.128 52.125C313.484 51.7917 313.753 51.3788 313.935 50.8864L317.776 51.3182C317.533 52.3333 317.071 53.2197 316.389 53.9773C315.715 54.7273 314.851 55.3106 313.798 55.7273C312.745 56.1364 311.541 56.3409 310.185 56.3409ZM321.426 62.5455V38.5455H325.472V41.4318H325.71C325.922 41.0076 326.222 40.5568 326.608 40.0795C326.994 39.5947 327.517 39.1818 328.176 38.8409C328.835 38.4924 329.676 38.3182 330.699 38.3182C332.047 38.3182 333.263 38.6629 334.347 39.3523C335.438 40.0341 336.301 41.0455 336.938 42.3864C337.581 43.7197 337.903 45.3561 337.903 47.2955C337.903 49.2121 337.589 50.8409 336.96 52.1818C336.331 53.5227 335.475 54.5455 334.392 55.25C333.309 55.9545 332.081 56.3068 330.71 56.3068C329.71 56.3068 328.881 56.1402 328.222 55.8068C327.563 55.4735 327.032 55.072 326.631 54.6023C326.237 54.125 325.93 53.6742 325.71 53.25H325.54V62.5455H321.426ZM325.46 47.2727C325.46 48.4015 325.619 49.3902 325.938 50.2386C326.263 51.0871 326.729 51.75 327.335 52.2273C327.949 52.697 328.691 52.9318 329.562 52.9318C330.472 52.9318 331.233 52.6894 331.847 52.2045C332.46 51.7121 332.922 51.0417 333.233 50.1932C333.551 49.3371 333.71 48.3636 333.71 47.2727C333.71 46.1894 333.555 45.2273 333.244 44.3864C332.934 43.5455 332.472 42.8864 331.858 42.4091C331.244 41.9318 330.479 41.6932 329.562 41.6932C328.684 41.6932 327.938 41.9242 327.324 42.3864C326.71 42.8485 326.244 43.4962 325.926 44.3295C325.616 45.1629 325.46 46.1439 325.46 47.2727ZM341.426 56V38.5455H345.54V56H341.426ZM343.494 36.0682C342.843 36.0682 342.282 35.8523 341.812 35.4205C341.343 34.9811 341.108 34.4545 341.108 33.8409C341.108 33.2197 341.343 32.6932 341.812 32.2614C342.282 31.822 342.843 31.6023 343.494 31.6023C344.153 31.6023 344.714 31.822 345.176 32.2614C345.646 32.6932 345.881 33.2197 345.881 33.8409C345.881 34.4545 345.646 34.9811 345.176 35.4205C344.714 35.8523 344.153 36.0682 343.494 36.0682ZM353.884 45.7727V56H349.77V38.5455H353.702V41.5114H353.906C354.308 40.5341 354.948 39.7576 355.827 39.1818C356.713 38.6061 357.808 38.3182 359.111 38.3182C360.315 38.3182 361.365 38.5758 362.259 39.0909C363.16 39.6061 363.857 40.3523 364.349 41.3295C364.849 42.3068 365.096 43.4924 365.088 44.8864V56H360.974V45.5227C360.974 44.3561 360.671 43.4432 360.065 42.7841C359.467 42.125 358.637 41.7955 357.577 41.7955C356.857 41.7955 356.217 41.9545 355.656 42.2727C355.103 42.5833 354.668 43.0341 354.349 43.625C354.039 44.2159 353.884 44.9318 353.884 45.7727ZM383.065 43.1591L379.315 43.5682C379.209 43.1894 379.024 42.8333 378.759 42.5C378.501 42.1667 378.152 41.8977 377.713 41.6932C377.274 41.4886 376.736 41.3864 376.099 41.3864C375.243 41.3864 374.524 41.572 373.94 41.9432C373.365 42.3144 373.08 42.7955 373.088 43.3864C373.08 43.8939 373.266 44.3068 373.645 44.625C374.031 44.9432 374.668 45.2045 375.554 45.4091L378.531 46.0455C380.183 46.4015 381.41 46.9659 382.213 47.7386C383.024 48.5114 383.433 49.5227 383.44 50.7727C383.433 51.8712 383.111 52.8409 382.474 53.6818C381.846 54.5152 380.971 55.1667 379.849 55.6364C378.728 56.1061 377.44 56.3409 375.986 56.3409C373.849 56.3409 372.13 55.8939 370.827 55C369.524 54.0985 368.747 52.8447 368.497 51.2386L372.509 50.8523C372.69 51.6402 373.077 52.2348 373.668 52.6364C374.259 53.0379 375.027 53.2386 375.974 53.2386C376.952 53.2386 377.736 53.0379 378.327 52.6364C378.925 52.2348 379.224 51.7386 379.224 51.1477C379.224 50.6477 379.031 50.2348 378.645 49.9091C378.266 49.5833 377.675 49.3333 376.872 49.1591L373.895 48.5341C372.221 48.1856 370.982 47.5985 370.179 46.7727C369.376 45.9394 368.978 44.8864 368.986 43.6136C368.978 42.5379 369.27 41.6061 369.861 40.8182C370.459 40.0227 371.289 39.4091 372.349 38.9773C373.418 38.5379 374.649 38.3182 376.043 38.3182C378.088 38.3182 379.698 38.7538 380.872 39.625C382.054 40.4962 382.785 41.6742 383.065 43.1591Z" fill="#231F20"/>
<g clip-path="url(#clip0_3_6)">
<mask id="mask0_3_6" style="mask-type:luminance" maskUnits="userSpaceOnUse" x="14" y="15" width="60" height="60">
<path d="M70.25 15H17.75C15.6789 15 14 16.6789 14 18.75V71.25C14 73.3211 15.6789 75 17.75 75H70.25C72.3211 75 74 73.3211 74 71.25V18.75C74 16.6789 72.3211 15 70.25 15Z" fill="white"/>
</mask>
<g mask="url(#mask0_3_6)">
<path d="M70.25 15H17.75C15.6789 15 14 16.6789 14 18.75V71.25C14 73.3211 15.6789 75 17.75 75H70.25C72.3211 75 74 73.3211 74 71.25V18.75C74 16.6789 72.3211 15 70.25 15Z" fill="white"/>
<path d="M57.4106 28.4963C52.4251 20.3205 41.7018 17.9565 34.2707 24.0637C28.7209 28.6933 28.0625 35.687 28.0625 42.5822C28.0625 51.546 28.0625 60.4111 28.0625 69.3749L37.4689 62.5784C37.4689 54.6981 36.7164 46.4239 37.563 38.6421C37.9392 35.49 39.2561 31.6484 42.3602 30.4663C46.1228 28.9888 49.8854 32.2394 50.5438 36.081C51.3904 41.2032 46.9694 43.4688 44.3356 46.8178C41.5137 50.364 40.9493 55.1906 41.6077 59.6231C46.6872 55.8801 52.7073 53.122 56.658 47.9014C60.7968 42.1882 60.9848 34.505 57.4106 28.4963C60.3264 33.323 54.3063 23.4726 57.4106 28.4963ZM57.9748 44.1582C58.3513 43.2717 58.069 43.9612 57.9748 44.1582Z" fill="url(#paint0_linear_3_6)"/>
</g>
</g>
<defs>
<linearGradient id="paint0_linear_3_6" x1="61.7129" y1="27.3068" x2="17.0185" y2="61.3389" gradientUnits="userSpaceOnUse">
<stop stop-color="#5D5FE5"/>
<stop offset="1" stop-color="#5ECFF9"/>
</linearGradient>
<clipPath id="clip0_3_6">
<rect width="60" height="60" fill="white" transform="translate(14 15)"/>
</clipPath>
</defs>
</svg>
