<svg width="48" height="48" viewBox="0 0 48 48" fill="none" xmlns="http://www.w3.org/2000/svg">
<rect width="48" height="48" rx="4" fill="black" fill-opacity="0.05"/>
<path d="M23.1486 11.007C23.0927 11.0121 22.9148 11.0299 22.7546 11.0426C19.0618 11.3755 15.6027 13.3677 13.4119 16.4299C12.192 18.1324 11.4117 20.0637 11.1169 22.1094C11.0127 22.8234 11 23.0344 11 24.0025C11 24.9707 11.0127 25.1816 11.1169 25.8957C11.8235 30.7773 15.2978 34.8788 20.0098 36.3984C20.8536 36.6703 21.7431 36.8558 22.7546 36.9676C23.1486 37.0108 24.8514 37.0108 25.2454 36.9676C26.9914 36.7745 28.4706 36.3425 29.9294 35.5979C30.1531 35.4836 30.1963 35.4531 30.1658 35.4277C30.1455 35.4124 29.1924 34.1342 28.0487 32.5892L25.9697 29.7812L23.3646 25.9262C21.9312 23.8069 20.7519 22.0738 20.7417 22.0738C20.7316 22.0713 20.7214 23.784 20.7163 25.8754C20.7087 29.5372 20.7062 29.6846 20.6604 29.771C20.5943 29.8955 20.5435 29.9463 20.4368 30.0022C20.3554 30.0429 20.2843 30.0505 19.9005 30.0505H19.4608L19.3439 29.9768C19.2676 29.9286 19.2117 29.865 19.1736 29.7913L19.1202 29.677L19.1253 24.5819L19.1329 19.4843L19.2117 19.3852C19.2524 19.3319 19.3388 19.2633 19.3998 19.2302C19.504 19.1794 19.5447 19.1743 19.9844 19.1743C20.5028 19.1743 20.5892 19.1946 20.7239 19.342C20.7621 19.3827 22.1726 21.5071 23.8602 24.0661C25.5478 26.625 27.8555 30.1191 28.9891 31.8344L31.0477 34.9525L31.1519 34.8838C32.0745 34.2841 33.0504 33.4303 33.8231 32.5409C35.4674 30.6528 36.5273 28.3505 36.8831 25.8957C36.9873 25.1816 37 24.9707 37 24.0025C37 23.0344 36.9873 22.8234 36.8831 22.1094C36.1765 17.2278 32.7022 13.1263 27.9902 11.6067C27.1591 11.3373 26.2747 11.1518 25.2835 11.04C25.0395 11.0146 23.3595 10.9867 23.1486 11.007ZM28.4706 18.8694C28.5926 18.9304 28.6917 19.0473 28.7273 19.1692C28.7476 19.2353 28.7527 20.6482 28.7476 23.8323L28.74 28.4013L27.9343 27.1663L27.1261 25.9313V22.61C27.1261 20.4627 27.1363 19.2556 27.1515 19.1972C27.1922 19.0549 27.2811 18.9431 27.4031 18.877C27.5073 18.8236 27.5455 18.8186 27.9445 18.8186C28.3206 18.8186 28.3867 18.8236 28.4706 18.8694Z" fill="black"/>
</svg>
