<svg width="18" height="18" viewBox="0 0 18 18" fill="none" xmlns="http://www.w3.org/2000/svg">
<path d="M8.10913 1.63523C5.40656 1.9618 3.08199 3.75923 2.09713 6.28438C1.74742 7.17666 1.5957 8.00209 1.5957 8.9998C1.5957 10.2572 1.8477 11.3089 2.41599 12.4095C3.54227 14.5978 5.68685 16.0789 8.14256 16.3669C8.57456 16.4184 9.42827 16.4184 9.86027 16.3669C12.316 16.0789 14.4606 14.5978 15.5868 12.4095C16.1551 11.3089 16.4071 10.2572 16.4071 8.9998C16.4071 7.74238 16.1551 6.69066 15.5868 5.59009C14.4606 3.4018 12.316 1.92066 9.86027 1.63266C9.44885 1.5838 8.51285 1.58638 8.10913 1.63523ZM9.72142 3.01095C10.5571 3.10866 11.4186 3.40438 12.1463 3.84666C12.3417 3.96495 12.7171 4.22723 12.7943 4.29923C12.8097 4.31209 11.2077 5.93209 8.57713 8.56266C6.24227 10.8975 4.32656 12.8055 4.31885 12.8055C4.2957 12.8055 3.95627 12.3272 3.8277 12.1112C3.40085 11.4041 3.12056 10.5812 3.00742 9.70695C2.9637 9.36495 2.97142 8.58066 3.02027 8.21552C3.18227 7.05323 3.65027 5.9938 4.39085 5.11695C5.70485 3.55866 7.68742 2.77695 9.72142 3.01095ZM13.8794 5.44352C14.332 6.07352 14.6354 6.71123 14.8231 7.43638C15.2526 9.0718 14.998 10.7818 14.1134 12.1961C13.6506 12.9367 12.9357 13.6515 12.1951 14.1144C10.7834 14.9964 9.05799 15.2535 7.43542 14.8241C6.87742 14.6749 6.34256 14.4487 5.85656 14.1529C5.66113 14.0347 5.2857 13.7724 5.20856 13.7004C5.19313 13.6875 6.79513 12.0675 9.4257 9.43695C11.7606 7.10209 13.6763 5.19409 13.684 5.19409C13.6917 5.19409 13.7791 5.30723 13.8794 5.44352Z" fill="#081E2B"/>
<path d="M8.3849 4.15017V4.74932L8.18176 4.76732C7.59804 4.81617 7.06318 5.07332 6.64661 5.50532C6.42547 5.73932 6.32776 5.88074 6.19661 6.15846C6.05518 6.45674 5.99347 6.7216 5.97547 7.07132C5.9369 7.88132 6.2969 8.65532 6.92947 9.12074L7.08376 9.23389L7.54147 8.77617L7.99661 8.32103L7.85261 8.24132C7.77033 8.20017 7.64176 8.09989 7.56204 8.02274C6.90376 7.3696 7.19433 6.29732 8.09947 6.03246C8.21776 5.99903 8.4029 5.99132 9.28233 5.99132H10.3263L10.8869 5.43074C11.2803 5.03474 11.4449 4.85474 11.4449 4.8136V4.75703H10.532H9.61918V4.15274V3.54846H9.00204H8.3849V4.15017Z" fill="#081E2B"/>
<path d="M10.4595 9.22627L10.0043 9.68142L10.1535 9.75856C10.3335 9.8537 10.5597 10.0748 10.6523 10.2497C10.9043 10.7203 10.822 11.2706 10.444 11.6511C10.3643 11.7308 10.2383 11.826 10.1637 11.8646C9.89374 12.0008 9.82174 12.0086 8.70574 12.0086H7.67717L7.11659 12.5691C6.72317 12.9651 6.55859 13.1451 6.55859 13.1863V13.2428H7.47145H8.38431V13.8471V14.4514H9.00145H9.61859V13.8497V13.2506L9.82174 13.2326C10.6626 13.1631 11.4186 12.6411 11.7915 11.8671C11.9715 11.4968 12.0203 11.2706 12.0203 10.8128C12.0229 10.4914 12.0126 10.3911 11.9637 10.2086C11.8917 9.93599 11.7169 9.57342 11.56 9.3677C11.4315 9.19542 11.11 8.88427 10.9892 8.81485L10.9146 8.77113L10.4595 9.22627Z" fill="#081E2B"/>
</svg>
