<svg width="18" height="18" viewBox="0 0 18 18" fill="none" xmlns="http://www.w3.org/2000/svg">
<g clip-path="url(#clip0_3_10)">
<path d="M8.00065 1.33325C11.6827 1.33325 14.6673 4.31792 14.6673 7.99992C14.6673 11.6819 11.6827 14.6666 8.00065 14.6666C4.31865 14.6666 1.33398 11.6819 1.33398 7.99992C1.33398 4.31792 4.31865 1.33325 8.00065 1.33325ZM8.00065 2.66659C6.58616 2.66659 5.22961 3.22849 4.22941 4.22868C3.22922 5.22888 2.66732 6.58543 2.66732 7.99992C2.66732 9.41441 3.22922 10.771 4.22941 11.7712C5.22961 12.7713 6.58616 13.3333 8.00065 13.3333C9.41514 13.3333 10.7717 12.7713 11.7719 11.7712C12.7721 10.771 13.334 9.41441 13.334 7.99992C13.334 6.58543 12.7721 5.22888 11.7719 4.22868C10.7717 3.22849 9.41514 2.66659 8.00065 2.66659ZM5.00065 6.99992C5.26587 6.99992 5.52022 7.10528 5.70776 7.29281C5.89529 7.48035 6.00065 7.7347 6.00065 7.99992C6.00065 8.26513 5.89529 8.51949 5.70776 8.70703C5.52022 8.89456 5.26587 8.99992 5.00065 8.99992C4.73543 8.99992 4.48108 8.89456 4.29354 8.70703C4.10601 8.51949 4.00065 8.26513 4.00065 7.99992C4.00065 7.7347 4.10601 7.48035 4.29354 7.29281C4.48108 7.10528 4.73543 6.99992 5.00065 6.99992ZM8.00065 6.99992C8.26587 6.99992 8.52022 7.10528 8.70776 7.29281C8.89529 7.48035 9.00065 7.7347 9.00065 7.99992C9.00065 8.26513 8.89529 8.51949 8.70776 8.70703C8.52022 8.89456 8.26587 8.99992 8.00065 8.99992C7.73543 8.99992 7.48108 8.89456 7.29354 8.70703C7.10601 8.51949 7.00065 8.26513 7.00065 7.99992C7.00065 7.7347 7.10601 7.48035 7.29354 7.29281C7.48108 7.10528 7.73543 6.99992 8.00065 6.99992ZM11.0007 6.99992C11.2659 6.99992 11.5202 7.10528 11.7078 7.29281C11.8953 7.48035 12.0007 7.7347 12.0007 7.99992C12.0007 8.26513 11.8953 8.51949 11.7078 8.70703C11.5202 8.89456 11.2659 8.99992 11.0007 8.99992C10.7354 8.99992 10.4811 8.89456 10.2935 8.70703C10.106 8.51949 10.0007 8.26513 10.0007 7.99992C10.0007 7.7347 10.106 7.48035 10.2935 7.29281C10.4811 7.10528 10.7354 6.99992 11.0007 6.99992Z" fill="#081E2C"/>
</g>
<defs>
<clipPath id="clip0_3_10">
<rect width="16" height="16" fill="white"/>
</clipPath>
</defs>
</svg>
