<svg width="18" height="18" viewBox="0 0 18 18" fill="none" xmlns="http://www.w3.org/2000/svg">
<path d="M2.44688 0.355078C2.0918 0.439453 1.67696 0.766405 1.50469 1.10039C1.33243 1.44141 1.33594 1.19531 1.33594 9C1.33594 16.8047 1.33243 16.5586 1.50469 16.8996C1.63829 17.1562 1.88438 17.3918 2.17266 17.5324L2.43985 17.666H9.00001H15.5602L15.8273 17.5324C16.1156 17.3918 16.3617 17.1562 16.4953 16.8996C16.6676 16.5621 16.6641 16.7098 16.6641 10.2656C16.6641 3.76172 16.6711 4.00781 16.4777 3.68789C16.4285 3.60351 15.7113 2.8582 14.8816 2.03203C13.6969 0.847265 13.3348 0.509766 13.1836 0.432421L12.9902 0.333984L7.78712 0.326952C4.72149 0.323437 2.52774 0.3375 2.44688 0.355078ZM11.9883 2.62617C11.9883 3.06914 12.0023 3.51914 12.0234 3.63516C12.1219 4.25039 12.6 4.75312 13.2117 4.8832C13.3207 4.9043 13.7496 4.92187 14.2383 4.92187H15.082V10.5469V16.1719H9.00001H2.91797V9V1.82812H7.45313H11.9883V2.62617Z" fill="#081E2B"/>
<path d="M8.43729 3.71254C8.31073 3.73715 8.0787 3.82504 7.91698 3.90238C6.46854 4.61957 6.15917 6.31059 7.19276 7.86449C7.6955 8.62035 8.27206 8.97543 8.99979 8.97543C9.64667 8.97894 10.1529 8.71527 10.6205 8.12816C11.2463 7.34418 11.5451 6.31059 11.3728 5.50902C11.1478 4.44027 10.1213 3.64926 8.97518 3.6598C8.80643 3.6598 8.56386 3.68441 8.43729 3.71254ZM9.28104 5.13285C9.62206 5.22777 9.92089 5.54418 9.97011 5.8641C10.0299 6.25785 9.7662 6.9223 9.40761 7.29848C9.09823 7.6184 8.94354 7.63598 8.66581 7.37934C8.35292 7.09105 8.07167 6.53559 8.02596 6.12074C7.98729 5.71996 8.17362 5.39301 8.54979 5.20668C8.78182 5.09066 9.03495 5.06254 9.28104 5.13285Z" fill="#081E2B"/>
<path d="M7.61158 9.5168C7.09478 9.64336 6.70455 9.8543 6.35299 10.1918C5.96275 10.5645 5.72017 11.0074 5.61119 11.5418C5.53385 11.9039 5.53385 12.8426 5.60767 13.1309C5.7483 13.6652 6.17369 14.1082 6.71158 14.2734C6.92252 14.3402 7.04556 14.3438 9.00025 14.3438C10.962 14.3438 11.078 14.3402 11.2889 14.2734C11.5737 14.1855 11.7389 14.0836 11.971 13.8551C12.1854 13.6406 12.3155 13.4156 12.3928 13.1309C12.4667 12.8426 12.4667 11.9039 12.3893 11.5383C12.203 10.6418 11.5702 9.91406 10.7053 9.6082L10.4241 9.50977L9.05299 9.50273C8.30064 9.50273 7.65025 9.50625 7.61158 9.5168ZM10.3643 11.0426C10.5999 11.1586 10.7792 11.3449 10.9057 11.598C10.9725 11.7387 10.9866 11.8266 10.9971 12.2625C11.0077 12.7055 11.0042 12.7758 10.9479 12.8355C10.8917 12.8988 10.8213 12.9023 9.00025 12.9023C7.17916 12.9023 7.10885 12.8988 7.0526 12.8355C6.99635 12.7758 6.99283 12.7055 7.00338 12.2625C7.01392 11.7984 7.02447 11.7457 7.11236 11.5594C7.22838 11.3238 7.49556 11.0672 7.71002 10.9934C7.82955 10.9477 8.08267 10.9371 9.00377 10.9371L10.1499 10.9336L10.3643 11.0426Z" fill="#081E2B"/>
</svg>
