<svg width="18" height="18" viewBox="0 0 18 18" fill="none" xmlns="http://www.w3.org/2000/svg">
<path d="M13.4993 2.25C13.5876 2.24994 13.6747 2.27068 13.7535 2.31055C13.8324 2.35042 13.9007 2.4083 13.953 2.4795L13.9943 2.54475L16.4415 7.06575L16.47 7.1355L16.479 7.1655L16.494 7.242L16.4985 7.3125C16.4985 7.36318 16.4917 7.41364 16.4783 7.4625L16.443 7.55625L16.4145 7.608C16.3979 7.63502 16.3791 7.66061 16.3583 7.6845L16.4032 7.626L16.3845 7.65225L9.447 15.531C9.38939 15.6076 9.31254 15.6677 9.22425 15.705L9.15075 15.7297L9.09225 15.7425L9 15.75L8.925 15.7455L8.8365 15.726C8.79067 15.7129 8.74679 15.6937 8.706 15.669L8.69925 15.6637C8.66365 15.6419 8.6309 15.6157 8.60175 15.5858L1.63425 7.67625L1.61475 7.65225L1.58475 7.608C1.54226 7.53938 1.51513 7.46236 1.50525 7.38225L1.5 7.3125L1.50225 7.263L1.512 7.19625C1.51667 7.1744 1.52268 7.15286 1.53 7.13175L1.5465 7.0875L1.5675 7.04475L4.005 2.54475C4.04702 2.46709 4.10674 2.40042 4.17931 2.35013C4.25189 2.29983 4.33528 2.26733 4.42275 2.25525L4.49925 2.25H13.4993ZM11.2477 7.875H6.7485L8.9985 13.6403L11.2477 7.875ZM5.54175 7.875H3.30675L7.32 12.4305L5.54175 7.875ZM14.6903 7.875H12.456L10.68 12.4275L14.6903 7.875ZM6.72825 3.375H4.83375L3.00525 6.75H5.64825L6.72825 3.375ZM10.0883 3.375H7.9095L6.82875 6.75H11.1675L10.0875 3.375H10.0883ZM13.1632 3.375H11.2695L12.3495 6.75H14.991L13.1632 3.375Z" fill="#081E2B"/>
</svg>
