<svg width="18" height="18" viewBox="0 0 18 18" fill="none" xmlns="http://www.w3.org/2000/svg">
<path d="M6.76777 1.25162C5.37559 1.50122 4.14863 2.35201 3.42793 3.56841C2.94629 4.38052 2.74238 5.20669 2.74238 6.32466V6.78169L2.59473 6.82037C2.33457 6.88716 2.1377 6.96451 1.83887 7.12271C0.910742 7.60435 0.246289 8.49732 0.0494141 9.52037C-0.0138672 9.85435 -0.0138672 10.5364 0.0494141 10.8704C0.207617 11.6895 0.692773 12.4665 1.37129 12.9797C1.67363 13.2118 2.2291 13.479 2.60176 13.5704C3.02715 13.6793 3.53691 13.704 3.74082 13.6266C4.15215 13.4684 4.31387 12.9305 4.06777 12.5543C3.93418 12.354 3.74785 12.2696 3.36113 12.2344C2.80918 12.1782 2.39082 11.9883 2.02168 11.6227C1.64199 11.2395 1.4416 10.7473 1.4416 10.1954C1.4416 9.64341 1.64199 9.15122 2.02168 8.76802C2.39082 8.39888 2.80566 8.21255 3.37168 8.1563C3.77598 8.11763 3.97637 8.01216 4.10293 7.7731C4.18027 7.62193 4.18379 7.59029 4.18379 6.74654C4.18379 5.79029 4.21543 5.47037 4.34902 5.04498C4.53184 4.47193 4.81309 4.0149 5.24199 3.60005C5.84316 3.02701 6.53574 2.70357 7.31621 2.64029C8.97207 2.51021 10.4416 3.53326 10.9232 5.15044C11.0111 5.45279 11.0146 5.51255 11.0357 6.55669C11.0604 7.76255 11.0604 7.76255 11.2994 7.97349C11.3697 8.03326 11.4822 8.10005 11.5561 8.11763C11.6404 8.14224 12.2662 8.1563 13.2365 8.1563C14.9627 8.1563 15.0014 8.15982 15.4654 8.39185C15.9541 8.63794 16.3654 9.14771 16.5061 9.68912C16.5729 9.95279 16.5729 10.4379 16.5061 10.7016C16.4217 11.018 16.2178 11.3766 15.9787 11.6157C15.6131 11.9883 15.1947 12.1782 14.6393 12.2344C14.4318 12.252 14.2666 12.2907 14.1717 12.3364C13.7885 12.5333 13.6971 13.1063 13.9994 13.4473C14.1611 13.6336 14.3545 13.6899 14.7588 13.6653C15.2123 13.6407 15.6236 13.5317 16.049 13.3243C16.9807 12.8743 17.6029 12.1219 17.9018 11.0883C17.9721 10.8458 17.9826 10.7333 17.9826 10.1954C17.9826 9.65747 17.9721 9.54497 17.9018 9.3024C17.6029 8.2688 16.9807 7.51646 16.049 7.06646C15.4057 6.75357 15.3283 6.73951 13.8131 6.72544L12.4912 6.71138L12.4701 6.0188C12.4455 5.0731 12.3189 4.54576 11.9428 3.81451C11.2502 2.46451 9.91426 1.49068 8.43066 1.2481C8.01934 1.1813 7.14746 1.18482 6.76777 1.25162Z" fill="#081E2B"/>
<path d="M8.77928 9.14072C8.62459 9.18994 8.44529 9.34463 8.36795 9.49228C8.30818 9.6083 8.29764 9.69971 8.29764 10.0442V10.4591L7.75975 10.7649C7.46443 10.9372 7.21131 11.0743 7.20076 11.0743C7.19021 11.0743 7.03904 10.9935 6.86678 10.8915C6.59607 10.7298 6.52928 10.7052 6.32889 10.6946C6.13904 10.6841 6.07225 10.6981 5.94217 10.7685C5.6117 10.9442 5.4781 11.3872 5.65037 11.7247C5.74529 11.904 5.791 11.9462 6.1531 12.1536L6.45193 12.3259L6.45896 12.9587L6.46951 13.588L6.12146 13.7884C5.82967 13.9571 5.75232 14.0169 5.67498 14.154C5.4324 14.5688 5.64685 15.0997 6.11443 15.2228C6.33592 15.2825 6.4906 15.2403 6.87029 15.0259L7.20779 14.836L7.74568 15.1454L8.28006 15.4548L8.29764 15.9118C8.31521 16.3864 8.33279 16.4462 8.49803 16.6009C8.77928 16.8681 9.22225 16.8681 9.5035 16.6009C9.66873 16.4462 9.68631 16.3864 9.70389 15.9118L9.72146 15.4583L10.2558 15.1489L10.7902 14.836L11.1312 15.0259C11.5074 15.2368 11.6656 15.2825 11.873 15.2263C12.3512 15.0962 12.5726 14.5759 12.3265 14.154C12.2492 14.0169 12.1719 13.9571 11.8801 13.7884L11.532 13.588L11.5426 12.9587L11.5496 12.3259L11.8484 12.1536C12.2105 11.9462 12.2562 11.904 12.3512 11.7247C12.5234 11.3872 12.3898 10.9442 12.0594 10.7685C11.9293 10.6981 11.8625 10.6841 11.6726 10.6946C11.4722 10.7052 11.4054 10.7298 11.1347 10.8915C10.9625 10.9935 10.8113 11.0743 10.8008 11.0743C10.7902 11.0743 10.5371 10.9372 10.2418 10.7649L9.70389 10.4591V10.0372C9.70389 9.54853 9.65115 9.41143 9.40154 9.23564C9.24685 9.12666 8.95857 9.08096 8.77928 9.14072ZM9.55975 12.0481L10.0906 12.354L10.0836 12.9657L10.073 13.5774L9.53865 13.8868L9.00076 14.1997L8.46639 13.8868L7.9285 13.5774L7.91795 12.9657L7.91092 12.3575L8.42771 12.0517C8.716 11.8864 8.9656 11.7458 8.99021 11.7458C9.01131 11.7423 9.26795 11.8794 9.55975 12.0481Z" fill="#081E2B"/>
</svg>
