<svg width="744" height="146" viewBox="0 0 744 146" fill="none" xmlns="http://www.w3.org/2000/svg">
<g clip-path="url(#clip0_1106_293)">
<path d="M192.574 104.209C197.548 104.209 201.192 103.265 203.507 101.379C205.822 99.4069 206.98 96.9631 206.98 94.0478C206.98 91.3897 206.079 89.2889 204.279 87.7454C202.478 86.1163 199.734 84.7443 196.047 83.6296L187.815 81.0573C184.557 80.0283 181.599 78.8707 178.941 77.5845C176.283 76.2984 174.01 74.7978 172.124 73.0829C170.237 71.2822 168.78 69.2243 167.751 66.9092C166.722 64.5083 166.207 61.6787 166.207 58.4203C166.207 51.4749 168.823 45.9871 174.053 41.9571C179.284 37.8413 186.443 35.7833 195.533 35.7833C199.134 35.7833 202.435 36.0835 205.436 36.6837C208.523 37.1982 211.181 37.9699 213.411 38.9988C215.64 39.942 217.355 41.1425 218.555 42.6002C219.842 44.0578 220.485 45.687 220.485 47.4877C220.485 49.2026 220.056 50.7032 219.198 51.9894C218.427 53.1898 217.441 54.1759 216.24 54.9476C214.182 53.4899 211.438 52.2466 208.009 51.2176C204.665 50.1029 200.977 49.5456 196.947 49.5456C192.489 49.5456 189.102 50.3602 186.786 51.9894C184.471 53.5328 183.314 55.6764 183.314 58.4203C183.314 60.6497 184.085 62.3646 185.629 63.5651C187.258 64.7655 189.788 65.9231 193.217 67.0378L200.549 69.3529C208.009 71.5823 213.796 74.6263 217.912 78.4849C222.028 82.3435 224.086 87.574 224.086 94.1764C224.086 97.692 223.4 100.907 222.028 103.823C220.656 106.738 218.641 109.268 215.983 111.411C213.411 113.469 210.152 115.056 206.208 116.17C202.349 117.371 197.933 117.971 192.96 117.971C189.016 117.971 185.372 117.628 182.028 116.942C178.769 116.256 175.94 115.356 173.539 114.241C171.138 113.041 169.251 111.669 167.879 110.125C166.593 108.496 165.95 106.738 165.95 104.852C165.95 102.88 166.508 101.208 167.622 99.8356C168.823 98.378 170.195 97.3061 171.738 96.6202C173.882 98.5066 176.711 100.264 180.227 101.894C183.743 103.437 187.858 104.209 192.574 104.209Z" fill="white"/>
<path d="M252.139 97.006C252.139 99.7499 252.954 101.722 254.583 102.923C256.298 104.123 258.656 104.723 261.657 104.723C263.115 104.723 264.572 104.552 266.03 104.209C267.573 103.866 268.945 103.437 270.146 102.923C270.832 103.608 271.389 104.466 271.818 105.495C272.332 106.438 272.589 107.553 272.589 108.839C272.589 111.411 271.432 113.555 269.117 115.27C266.802 116.899 263.072 117.714 257.927 117.714C251.153 117.714 245.794 116.213 241.85 113.212C237.991 110.125 236.062 105.066 236.062 98.035V38.9988C236.748 38.8273 237.734 38.613 239.02 38.3557C240.392 38.0985 241.85 37.9699 243.393 37.9699C246.394 37.9699 248.581 38.5272 249.953 39.6419C251.41 40.7566 252.139 42.7288 252.139 45.5584V56.2338H271.046C271.475 56.9197 271.861 57.8201 272.204 58.9348C272.547 60.0495 272.718 61.2499 272.718 62.5361C272.718 64.7655 272.204 66.3947 271.175 67.4236C270.146 68.4526 268.774 68.9671 267.059 68.9671H252.139V97.006Z" fill="white"/>
<path d="M308.435 105.495C310.922 105.495 313.194 105.281 315.252 104.852C317.31 104.337 318.81 103.737 319.753 103.051V88.7744L307.277 89.932C303.848 90.275 301.232 91.0467 299.432 92.2471C297.631 93.3618 296.731 95.1625 296.731 97.6491C296.731 100.136 297.631 102.065 299.432 103.437C301.318 104.809 304.319 105.495 308.435 105.495ZM307.921 53.1469C316.324 53.1469 323.012 54.9476 327.985 58.5489C333.044 62.1503 335.574 67.7237 335.574 75.2694V104.98C335.574 107.038 335.059 108.667 334.03 109.868C333.001 111.068 331.715 112.14 330.172 113.083C327.771 114.541 324.727 115.699 321.04 116.556C317.353 117.414 313.151 117.842 308.435 117.842C299.86 117.842 293.086 116.213 288.113 112.955C283.226 109.611 280.782 104.637 280.782 98.035C280.782 92.29 282.583 87.9169 286.184 84.9158C289.871 81.829 295.187 79.9426 302.133 79.2566L319.753 77.4559V75.1408C319.753 71.8824 318.553 69.4815 316.152 67.9381C313.837 66.3947 310.536 65.623 306.248 65.623C302.904 65.623 299.646 66.0517 296.473 66.9092C293.301 67.6809 290.471 68.667 287.985 69.8674C287.041 69.1814 286.227 68.2811 285.541 67.1664C284.941 65.966 284.64 64.6798 284.64 63.3078C284.64 61.5929 285.026 60.221 285.798 59.192C286.655 58.0773 287.985 57.0912 289.785 56.2338C292.272 55.2048 295.101 54.4331 298.274 53.9186C301.447 53.4042 304.662 53.1469 307.921 53.1469Z" fill="white"/>
<path d="M366.63 97.006C366.63 99.7499 367.445 101.722 369.074 102.923C370.789 104.123 373.147 104.723 376.148 104.723C377.606 104.723 379.063 104.552 380.521 104.209C382.064 103.866 383.436 103.437 384.637 102.923C385.323 103.608 385.88 104.466 386.309 105.495C386.823 106.438 387.081 107.553 387.081 108.839C387.081 111.411 385.923 113.555 383.608 115.27C381.293 116.899 377.563 117.714 372.418 117.714C365.644 117.714 360.285 116.213 356.341 113.212C352.482 110.125 350.553 105.066 350.553 98.035V38.9988C351.239 38.8273 352.225 38.613 353.511 38.3557C354.883 38.0985 356.341 37.9699 357.884 37.9699C360.885 37.9699 363.072 38.5272 364.444 39.6419C365.901 40.7566 366.63 42.7288 366.63 45.5584V56.2338H385.537C385.966 56.9197 386.352 57.8201 386.695 58.9348C387.038 60.0495 387.209 61.2499 387.209 62.5361C387.209 64.7655 386.695 66.3947 385.666 67.4236C384.637 68.4526 383.265 68.9671 381.55 68.9671H366.63V97.006Z" fill="white"/>
<path d="M399.141 55.4621C399.827 55.2906 400.813 55.0762 402.099 54.819C403.471 54.5617 404.928 54.4331 406.472 54.4331C409.559 54.4331 411.788 54.9905 413.16 56.1052C414.618 57.2199 415.347 59.192 415.347 62.0216V115.784C414.661 115.956 413.632 116.17 412.26 116.428C410.974 116.685 409.559 116.813 408.015 116.813C404.928 116.813 402.656 116.256 401.198 115.141C399.827 114.027 399.141 112.054 399.141 109.225V55.4621ZM397.854 36.8123C397.854 34.3257 398.712 32.2249 400.427 30.51C402.227 28.7093 404.5 27.809 407.244 27.809C409.987 27.809 412.217 28.7093 413.932 30.51C415.647 32.2249 416.504 34.3257 416.504 36.8123C416.504 39.3847 415.647 41.5712 413.932 43.3719C412.217 45.0868 409.987 45.9443 407.244 45.9443C404.5 45.9443 402.227 45.0868 400.427 43.3719C398.712 41.5712 397.854 39.3847 397.854 36.8123Z" fill="white"/>
<path d="M462.385 66.1374C459.813 66.1374 457.412 66.5662 455.182 67.4236C453.039 68.2811 451.152 69.5244 449.523 71.1536C447.98 72.7828 446.736 74.7978 445.793 77.1987C444.85 79.5996 444.378 82.3863 444.378 85.5589C444.378 91.9041 446.05 96.7059 449.394 99.9643C452.739 103.137 457.069 104.723 462.385 104.723C465.386 104.723 467.958 104.337 470.102 103.566C472.332 102.708 474.304 101.808 476.019 100.865C477.219 101.722 478.162 102.708 478.848 103.823C479.62 104.938 480.006 106.224 480.006 107.681C480.006 110.597 478.291 112.998 474.861 114.884C471.431 116.77 466.801 117.714 460.97 117.714C456.083 117.714 451.581 117.071 447.465 115.784C443.435 114.412 439.962 112.397 437.047 109.739C434.132 106.995 431.859 103.608 430.23 99.5784C428.687 95.5483 427.915 90.8752 427.915 85.5589C427.915 80.1569 428.773 75.4409 430.487 71.4108C432.202 67.295 434.518 63.9081 437.433 61.2499C440.434 58.5061 443.907 56.491 447.851 55.2048C451.795 53.8329 455.997 53.1469 460.456 53.1469C466.201 53.1469 470.788 54.1759 474.218 56.2338C477.648 58.2059 479.363 60.6497 479.363 63.5651C479.363 64.937 478.977 66.1803 478.205 67.295C477.519 68.4097 476.705 69.3101 475.761 69.996C474.046 69.0528 472.117 68.1954 469.974 67.4236C467.916 66.5662 465.386 66.1374 462.385 66.1374Z" fill="white"/>
<path d="M508.479 115.784C507.707 115.956 506.678 116.17 505.392 116.428C504.106 116.685 502.648 116.813 501.019 116.813C498.018 116.813 495.788 116.256 494.331 115.141C492.873 114.027 492.144 112.054 492.144 109.225V32.3106C492.83 32.0534 493.816 31.839 495.102 31.6675C496.474 31.4103 497.975 31.2817 499.604 31.2817C502.605 31.2817 504.835 31.839 506.292 32.9537C507.75 34.0684 508.479 36.0406 508.479 38.8702V56.6196C510.365 55.6764 512.509 54.8618 514.91 54.1759C517.396 53.4899 520.14 53.1469 523.141 53.1469C530.944 53.1469 537.161 55.162 541.791 59.192C546.421 63.2221 548.737 69.31 548.737 77.4559V115.784C548.051 115.956 547.022 116.17 545.65 116.428C544.364 116.685 542.949 116.813 541.405 116.813C538.318 116.813 536.046 116.256 534.588 115.141C533.131 114.027 532.402 112.054 532.402 109.225V78.2276C532.402 73.9403 531.287 70.8535 529.058 68.9671C526.828 66.9949 523.913 66.0088 520.312 66.0088C517.997 66.0088 515.853 66.3947 513.881 67.1664C511.909 67.8524 510.108 68.7098 508.479 69.7388V115.784Z" fill="white"/>
<path d="M620.421 103.951C620.421 105.924 620.078 107.596 619.392 108.968C618.706 110.254 617.462 111.411 615.662 112.44C613.175 113.984 610.002 115.27 606.144 116.299C602.371 117.328 598.041 117.842 593.153 117.842C588.695 117.842 584.665 117.328 581.063 116.299C577.462 115.356 574.375 113.855 571.803 111.797C569.23 109.739 567.258 107.124 565.886 103.951C564.514 100.779 563.828 97.006 563.828 92.633V55.2048C564.514 54.9476 565.5 54.7332 566.786 54.5617C568.158 54.3045 569.659 54.1759 571.288 54.1759C574.289 54.1759 576.519 54.7332 577.976 55.8479C579.434 56.8769 580.163 58.849 580.163 61.7644V92.3757C580.163 96.8345 581.278 100.05 583.507 102.022C585.822 103.909 589.08 104.852 593.282 104.852C595.94 104.852 598.17 104.595 599.97 104.08C601.857 103.566 603.271 103.008 604.215 102.408V55.2048C604.901 54.9476 605.887 54.7332 607.173 54.5617C608.545 54.3045 610.002 54.1759 611.546 54.1759C614.633 54.1759 616.862 54.7332 618.234 55.8479C619.692 56.8769 620.421 58.849 620.421 61.7644V103.951Z" fill="white"/>
<path d="M675.779 76.6842C675.779 72.9971 674.707 70.2961 672.564 68.5812C670.506 66.8663 667.676 66.0088 664.075 66.0088C661.588 66.0088 659.273 66.3089 657.129 66.9092C655.071 67.5094 653.271 68.2811 651.727 69.2243V115.784C650.956 115.956 649.927 116.17 648.64 116.428C647.354 116.685 645.897 116.813 644.267 116.813C641.266 116.813 639.037 116.256 637.579 115.141C636.122 114.027 635.393 112.054 635.393 109.225V67.9381C635.393 65.8802 635.821 64.2082 636.679 62.922C637.536 61.6358 638.865 60.3925 640.666 59.192C643.153 57.4771 646.454 56.0623 650.57 54.9476C654.686 53.7471 659.23 53.1469 664.203 53.1469C673.035 53.1469 679.852 55.1191 684.654 59.0634C689.541 62.922 691.985 68.6241 691.985 76.1697V115.784C691.299 115.956 690.27 116.17 688.898 116.428C687.612 116.685 686.197 116.813 684.654 116.813C681.567 116.813 679.295 116.256 677.837 115.141C676.465 114.027 675.779 112.054 675.779 109.225V76.6842Z" fill="white"/>
<path d="M723.417 97.006C723.417 99.7499 724.232 101.722 725.861 102.923C727.576 104.123 729.934 104.723 732.935 104.723C734.393 104.723 735.851 104.552 737.308 104.209C738.852 103.866 740.224 103.437 741.424 102.923C742.11 103.608 742.667 104.466 743.096 105.495C743.611 106.438 743.868 107.553 743.868 108.839C743.868 111.411 742.71 113.555 740.395 115.27C738.08 116.899 734.35 117.714 729.205 117.714C722.431 117.714 717.072 116.213 713.128 113.212C709.269 110.125 707.34 105.066 707.34 98.035V38.9988C708.026 38.8273 709.012 38.613 710.298 38.3557C711.67 38.0985 713.128 37.9699 714.671 37.9699C717.672 37.9699 719.859 38.5272 721.231 39.6419C722.689 40.7566 723.417 42.7288 723.417 45.5584V56.2338H742.324C742.753 56.9197 743.139 57.8201 743.482 58.9348C743.825 60.0495 743.996 61.2499 743.996 62.5361C743.996 64.7655 743.482 66.3947 742.453 67.4236C741.424 68.4526 740.052 68.9671 738.337 68.9671H723.417V97.006Z" fill="white"/>
<path d="M124.619 21.3812C96.1105 -7.12708 49.8895 -7.12706 21.3812 21.3812C-7.12706 49.8895 -7.12708 96.1105 21.3812 124.619C49.8895 153.127 96.1105 153.127 124.619 124.619C153.127 96.1105 153.127 49.8895 124.619 21.3812Z" fill="url(#paint0_linear_1106_293)"/>
<path d="M59.0946 70.8039V78.4144C59.0946 78.4144 40.2835 78.538 38.7503 78.4652C36.4109 78.3563 34.8317 76.8114 34.7639 74.8839C34.6909 72.7075 36.0999 71.2215 38.6009 70.9493C39.6903 70.8298 40.7984 70.8644 42.5129 70.8039H59.0946Z" fill="white"/>
<path d="M74.4652 70.8039V78.4144C74.4652 78.4144 56.6443 78.538 55.1917 78.4652C52.9754 78.3563 51.4793 76.8114 51.4152 74.8839C51.346 72.7075 52.6808 71.2215 55.0501 70.9493C56.0823 70.8298 57.132 70.8644 58.7563 70.8039H74.4652Z" fill="white"/>
<path d="M93.6751 70.8039V78.4144C93.6751 78.4144 74.8641 78.538 73.3309 78.4652C70.9915 78.3563 69.4122 76.8114 69.3445 74.8839C69.2715 72.7075 70.6805 71.2215 73.1814 70.9493C74.2709 70.8298 75.379 70.8644 77.0934 70.8039H93.6751Z" fill="white"/>
<path d="M87.2682 78.4898L87.2682 70.8793C87.2682 70.8793 106.079 70.7557 107.612 70.8285C109.952 70.9374 111.531 72.4823 111.599 74.4098C111.672 76.5862 110.263 78.0722 107.762 78.3444C106.672 78.4639 105.564 78.4293 103.85 78.4898L87.2682 78.4898Z" fill="white"/>
<path d="M75.7432 45.2063C75.7432 45.2063 84.9772 45.2063 106.117 45.2063C107.162 45.2063 108.246 45.0754 109.203 45.6187C110.595 46.4078 111.533 47.5301 111.6 49.2313C111.667 51.0356 110.693 52.2332 109.266 53.0818C105.14 55.5326 100.99 57.9357 96.844 60.3507C95.5395 61.1121 94.2468 61.9012 92.9028 62.5912C90.8535 63.6461 88.611 63.083 87.5193 61.3143C86.2896 59.3157 86.6916 57.2298 88.674 55.7388C89.5371 55.0884 90.4987 54.5729 91.9254 53.6688C79.9365 53.6688 75.7432 53.6688 75.7432 53.6688L75.7432 45.2063Z" fill="white"/>
<path d="M65.4956 45.1924L82.1447 45.1924V54.1574H65.4956L65.4956 45.1924Z" fill="white"/>
<path d="M70.6196 45.2063C70.6196 45.2063 61.3856 45.2063 40.2453 45.2063C39.2009 45.2063 38.1171 45.0754 37.1594 45.6187C35.7682 46.4078 34.8302 47.5301 34.7632 49.2313C34.6962 51.0356 35.6697 52.2332 37.0964 53.0818C41.2227 55.5326 45.3727 57.9357 49.5188 60.3507C50.8233 61.1121 52.116 61.9012 53.46 62.5912C55.5093 63.6461 57.7518 63.083 58.8435 61.3143C60.0732 59.3157 59.6712 57.2298 57.6888 55.7388C56.8257 55.0884 55.864 54.5729 54.4374 53.6688C66.4263 53.6688 70.6196 53.6688 70.6196 53.6688L70.6196 45.2063Z" fill="white"/>
<path d="M70.6196 104.091C70.6196 104.091 61.3856 104.091 40.2453 104.091C39.2009 104.091 38.1171 104.222 37.1594 103.679C35.7682 102.889 34.8302 101.767 34.7632 100.066C34.6962 98.2616 35.6697 97.0641 37.0964 96.2154C41.2227 93.7647 45.3727 91.3616 49.5188 88.9466C50.8233 88.1852 52.116 87.3961 53.4599 86.706C55.5093 85.6512 57.7518 86.2143 58.8435 87.983C60.0732 89.9816 59.6712 92.0675 57.6888 93.5585C56.8257 94.2089 55.864 94.7244 54.4374 95.6285C66.4263 95.6285 70.6196 95.6285 70.6196 95.6285L70.6196 104.091Z" fill="white"/>
<path d="M80.8672 104.105L65.4988 104.105L65.4988 95.1399L80.8672 95.1399L80.8672 104.105Z" fill="white"/>
<path d="M75.7432 104.091C75.7432 104.091 84.9772 104.091 106.117 104.091C107.162 104.091 108.246 104.222 109.203 103.679C110.595 102.889 111.533 101.767 111.6 100.066C111.667 98.2616 110.693 97.0641 109.266 96.2154C105.14 93.7647 100.99 91.3616 96.844 88.9466C95.5395 88.1852 94.2468 87.3961 92.9028 86.706C90.8535 85.6512 88.611 86.2143 87.5193 87.983C86.2896 89.9816 86.6916 92.0675 88.674 93.5585C89.5371 94.2089 90.4987 94.7244 91.9254 95.6285C79.9365 95.6285 75.7432 95.6285 75.7432 95.6285L75.7432 104.091Z" fill="white"/>
</g>
<defs>
<linearGradient id="paint0_linear_1106_293" x1="0" y1="73" x2="146" y2="73" gradientUnits="userSpaceOnUse">
<stop stop-color="#05966A"/>
<stop offset="1" stop-color="#24B0C7"/>
</linearGradient>
<clipPath id="clip0_1106_293">
<rect width="744" height="146" fill="white"/>
</clipPath>
</defs>
</svg>
